<svg version="1.1" xmlns="http://www.w3.org/2000/svg" viewBox="0 0 628.234375 452.42578125" width="628.234375" height="452.42578125">
  <!-- svg-source:excalidraw -->
  
  <defs>
    <style class="style-fonts">
      @font-face {
        font-family: "Virgil";
        src: url("https://excalidraw.com/Virgil.woff2");
      }
      @font-face {
        font-family: "Cascadia";
        src: url("https://excalidraw.com/Cascadia.woff2");
      }
    </style>
    
  </defs>
  <rect x="0" y="0" width="628.234375" height="452.42578125" fill="#ffffff"></rect><g stroke-linecap="round" transform="translate(10 50.3671875) rotate(0 178.3515625 155.236328125)"><path d="M19.55 83.24 C19.55 83.24, 19.55 83.24, 19.55 83.24 M19.55 83.24 C19.55 83.24, 19.55 83.24, 19.55 83.24 M14.83 95.77 C27.59 82.79, 38.2 71.34, 54.47 50.18 M15.15 93.27 C24.83 84.23, 33.53 72.02, 54.13 49.61 M10.48 103.3 C26.66 89.79, 36.62 75.09, 68.32 40.92 M11.3 104.4 C31.69 80.05, 51.99 56.02, 67.09 40.61 M8.23 115.08 C31.03 84.67, 57.17 56.68, 81.66 32.32 M7.55 116.66 C26.17 94.99, 44.65 74.07, 80.76 31.67 M3.07 125.05 C31.63 90, 61.59 54.75, 96.98 18.98 M3.33 127.94 C27.48 99.43, 51.54 69.94, 96.09 19.86 M3.77 130.05 C40.94 88.19, 80.59 45.04, 101.06 17.86 M4.22 129.38 C45.4 85.86, 83.2 40.66, 101.89 19.24 M5.29 135.83 C38.18 102.71, 69.36 63.49, 110.53 16.87 M4.76 136.37 C39.6 96.99, 75.36 57.44, 109.82 17.5 M5.71 142.89 C43.62 101.67, 80.29 57.79, 114.92 14.91 M4.88 142.49 C41.83 100.96, 76.58 60.59, 115.93 14.97 M3.8 150.44 C50.08 99.98, 91.72 46.72, 123.31 13.35 M5.96 148.43 C32.26 118.6, 60.5 84.66, 122.79 12.16 M6.3 155.13 C46.9 108.69, 89.17 59.98, 130.91 11.82 M5.54 154.8 C45.75 107.58, 86.64 59.78, 130.53 10.64 M4.69 161.55 C50.46 111.01, 90.65 59.8, 137.89 8.68 M4.59 161.66 C40.58 120.28, 74.18 82.14, 138.97 7.56 M5.56 167.25 C32.23 135.4, 62.08 101.06, 145.71 4.4 M5.31 167.53 C56.94 107.38, 108.65 46.74, 145.21 5.36 M5.34 174.43 C53.03 117.05, 100.82 60.34, 149.55 6.48 M4.44 174.27 C38.24 134.74, 74.32 94.46, 151.47 4.93 M4.09 179.53 C59.05 116.65, 111.53 55.74, 156.07 4.4 M5.73 178.47 C46.9 131.26, 88.46 84.6, 156.89 5.48 M7.66 184.64 C64.54 116, 119.51 50.75, 163.34 3.16 M7.24 183.7 C48.7 133.22, 91.2 83.99, 161.38 5.17 M8.37 188.17 C50.22 139.86, 92.99 91.31, 168.12 4.49 M7.16 187.86 C51.6 140.19, 94.73 91.06, 167.81 4.19 M10.34 192.14 C64.26 132.79, 117.55 71.11, 173.05 2.48 M9.06 193.02 C44.75 151.77, 78.94 111.83, 173.75 3.31 M11.94 195.98 C72.49 125.76, 132.38 56.55, 178.78 3.64 M10.72 196.03 C58.01 144, 103.03 91.7, 179.21 3.25 M13.32 201.21 C68.23 138.4, 123.91 74.18, 184.62 2.47 M12.1 202.11 C69.05 136.05, 126.52 69.69, 185.01 3.42 M12.56 204.58 C84.67 124.64, 152.59 45.2, 190.76 1.36 M14.14 205.07 C54.75 158.37, 95.06 112.05, 190.49 3.03 M15.75 209.92 C54.75 163.12, 95.44 116.58, 195.62 2.53 M15.08 209.69 C64.51 152, 114.7 94.27, 196.82 1.38 M17.69 214.49 C65.92 162.18, 113.58 106.1, 200.44 2.97 M17.43 214.75 C80.02 141.8, 143.92 67.69, 201.01 2.69 M16.95 219.19 C75.78 155.85, 135.4 86.23, 204.87 4.04 M16.74 219.5 C80.2 147.29, 143.28 74.63, 205.1 4.04 M18.53 223.53 C84.84 152.24, 145.17 79.45, 209.06 5.51 M19.46 223.28 C66.96 168.85, 115.18 113.69, 209.3 4.17 M23 225.02 C94.13 141.74, 167.57 56.65, 212.92 5.8 M21.78 225.64 C85.32 153.89, 148.65 81.3, 213.9 5.17 M25.74 230.75 C95.14 146.02, 168.44 62.6, 218.69 7.47 M24.93 228.93 C76.02 169.48, 127.7 110.77, 217.76 6.67 M26.85 234.33 C80.3 173.1, 133.58 111.65, 222.6 7 M27.53 232.49 C95.18 153.82, 163.71 74.17, 222.94 7.67 M29.01 235.68 C70.68 186.33, 116.11 136.31, 225.77 9.87 M29.07 235.95 C92.12 165.62, 153.22 95.63, 226.61 9.01 M31.24 240.27 C101.44 161.61, 170.64 83.3, 232.28 10.83 M31.35 239.49 C78.75 188.09, 124.35 134.91, 232.2 9.88 M35.28 243.31 C90.56 180.46, 145.56 115.63, 236.93 11.91 M34.19 242.57 C113.37 151.2, 192.61 58.44, 235.83 10.41 M35.99 247.51 C115.14 160.91, 189.92 73.08, 241.3 10.77 M36.36 246.43 C85.19 191.18, 134.56 135.86, 240.63 11.71 M39.11 250.22 C86.54 196.11, 136.62 142, 244.4 12.56 M38.5 249.94 C110.18 169.3, 182.65 86.88, 244.73 12.67 M40.21 252.35 C100.53 184.48, 160 114.47, 250.16 12.88 M41.13 253.49 C85.82 200.21, 130.05 148.66, 249.98 12.96 M42.33 257.03 C116.78 174.22, 189.63 89.75, 254.65 16.07 M43.29 256.36 C102.86 190.19, 160.02 123.85, 253.68 14.96 M47.14 257.87 C91.62 205.88, 138.89 153.71, 258.24 15.91 M46.89 259.72 C93.41 204.21, 142.14 149.61, 257.52 17.18 M50.74 262.51 C128.47 172.69, 208.28 83.6, 259.38 18.72 M49.2 262.14 C111.87 192.91, 172.91 122.44, 260.28 19.83 M53.07 265.35 C99.64 209.2, 147.48 155.51, 264.6 20.83 M52.64 263.87 C118.83 189.69, 183.57 115.06, 264.68 21.97 M55.59 265.96 C101.49 215.07, 144.99 164, 266.87 24.52 M56.5 267.03 C100.43 214.49, 143.41 164.76, 267.27 22.76 M60.54 269.51 C104.74 219.92, 147.58 167.92, 271.08 25.48 M59.31 268.49 C127.83 190.51, 196.41 111.67, 270.94 25.66 M61.43 272.69 C117.35 209.45, 171.45 145.6, 275.72 27.67 M62.89 272.23 C110.8 213.68, 160.82 155.41, 275.31 27.56 M65.17 274.58 C147.31 180.78, 227.89 87.62, 278.92 28.26 M65.62 273.08 C130.42 200.68, 193.41 128.18, 278.22 28.8 M68.4 274.93 C131.3 205.02, 193.41 132.53, 283.13 31.73 M68.91 275.92 C129.97 207.96, 190.69 138.58, 282.11 31.31 M71.56 278.19 C157.9 181.36, 243.74 83.22, 287.22 32.06 M72.21 278.15 C136.46 204.71, 200.17 130.7, 285.77 33.28 M74.69 280.72 C147.51 193.42, 222.15 108.7, 287.73 35.84 M75.37 280.58 C130.59 219.17, 183.47 158.11, 288.7 35.02 M80.02 284.38 C127.16 229.44, 173.62 173.84, 293.01 36 M78.76 283.66 C153.96 197.75, 228.47 111.03, 292.39 37.56 M82.61 285.3 C136.4 221.47, 188.83 158.39, 296.28 38.62 M81.87 285.95 C156.9 197.7, 233.52 109.95, 295.85 38.42 M86.13 288.15 C138.77 224.69, 193.75 162.82, 300.15 42.93 M85.6 288.1 C151.67 210.93, 219.23 133.29, 299.04 42.04 M88.78 288.89 C156.99 213.81, 222.27 138.89, 303.27 45.58 M88.78 289.4 C171.86 193.75, 256.18 96.59, 302.25 43.98 M94.28 291.36 C140.44 236.82, 185.69 184.87, 303.6 47.96 M92.71 291.28 C137.62 239.83, 182.35 189.01, 304.93 48 M96.84 293.01 C179.68 196.22, 260.32 102.38, 309.25 49.92 M96.75 292.71 C152.62 229.23, 209.33 164.6, 308.41 50.79 M102.09 294.65 C155.34 229.65, 213.84 163.95, 309.87 53.15 M101.53 293.8 C161.95 222.34, 224.43 152.04, 310.65 53.63 M104.9 296.09 C156.37 239.01, 209.35 178.77, 314.68 55.53 M105.97 295.56 C161.91 228.97, 219.24 162.36, 313.88 56.14 M108.45 296.73 C167.56 228.56, 225.62 164.16, 315.91 59.12 M108.38 297.11 C189.87 204.01, 270.62 112.2, 317.1 58.71 M113.08 299.64 C156.48 248.88, 197.34 201.13, 318.07 62.75 M113.26 298.26 C159.83 244.44, 204.82 192.72, 318.94 61.35 M115.75 300.88 C192.16 217.1, 264.37 132.73, 321.43 63.34 M117.07 300.92 C189.31 217.29, 259.88 136.2, 321.9 63.73 M121.47 302.03 C178.27 238.37, 233.25 172.04, 325.52 66.42 M121.94 301.82 C181.03 229.65, 243.02 159.38, 324.94 66.47 M125.71 302.3 C195.03 224.41, 263.59 145.74, 329.51 70.57 M125.66 303.83 C203.45 214.38, 278.93 127.08, 327.63 69.73 M128.7 305.56 C178.31 248.21, 228.11 191.15, 329.82 71.86 M129.86 304.4 C171.46 255.95, 213.84 207.18, 331.13 72.83 M132.13 306.53 C183.89 245.4, 239.67 182.92, 334.22 74.78 M132.71 306.93 C203.16 228.01, 270.96 149.32, 333.08 76.54 M135.61 307.21 C207.4 226.8, 279.27 144.81, 335.12 81.22 M136.54 308.47 C185.36 255.05, 231.87 199.42, 334.41 79.88 M140.17 307.23 C206.28 232.48, 274.47 154.81, 336.46 82.33 M141.56 308 C188.93 252.87, 235.93 197.35, 337 83.82 M144.84 309.99 C196.96 252.59, 246.02 195.41, 339.59 87.5 M146.42 309.83 C220.58 222.65, 294.87 137.8, 338.47 87.33 M152.32 309.37 C220.03 229.06, 288.89 148.33, 339.4 91.43 M151.17 309.61 C213.21 235.47, 278.74 161.85, 341.29 92.7 M155.11 309.39 C205.02 254.43, 253.12 199.58, 342.15 94.29 M156.6 311.02 C200.19 257.42, 246.04 206.35, 342.69 95.33 M161.32 309.52 C209.63 254.1, 262.18 193.13, 343.18 99.85 M160.23 310.28 C201.36 263.11, 243.95 214.37, 344.9 99.83 M167.33 310.17 C209.99 259.03, 253.52 207.74, 344.81 105.09 M166.42 310.76 C216.83 251.49, 269.74 190.77, 346.31 104.4 M171.92 312.95 C213.8 260.32, 257.95 210.44, 348.97 107.17 M170.4 311.89 C236.54 237.04, 302.36 161.43, 348.77 106.33 M176.83 313.1 C241.36 237.08, 309.32 160.65, 350.94 112.29 M175.32 312.39 C216.66 266.78, 254.95 222.98, 350.36 111.57 M179.58 312.2 C241.66 244.17, 303.54 170.9, 353.92 113.38 M180.81 312.87 C242.69 242.23, 303.61 171.31, 353.23 114.14 M186.61 313.84 C220.21 269.93, 255.81 232.42, 351.92 120.04 M186.13 313.06 C225.51 269.25, 263.87 225.56, 353.18 120.35 M189.27 315.04 C244.76 254.56, 298.59 193.39, 355.59 124.33 M190.47 313.49 C228.13 269.48, 266.26 225.67, 353.77 124.32 M197.23 313.08 C252.36 249.83, 305.62 186.99, 356.16 130.83 M197.02 313.02 C241.72 260.89, 287.39 208.07, 354.9 130.83 M204.23 310.94 C265.56 240.98, 324.62 170.34, 355.05 134.7 M203.43 309.95 C235.89 274.99, 266.07 241.02, 356.21 135.04 M208.84 308.04 C268.81 245.15, 323.13 177.08, 354.64 141.24 M209.16 309.4 C251.66 260.18, 293.62 211.21, 355.95 141.17 M215.7 308.42 C249.88 268.29, 285.63 226.73, 357.48 144.99 M216.89 308.82 C260.38 259.47, 304.7 209.51, 356.54 146.76 M223.82 307.85 C253.57 273.51, 279.4 240.03, 356.7 152.41 M223.67 307.19 C262.89 257.99, 304.8 210.35, 357.52 150.65 M230.28 306.67 C261.76 266.2, 298.46 229.12, 359.85 157.23 M228.47 305.01 C272.42 254.13, 318.41 203.02, 357.56 156.33 M236.83 300.12 C269.22 264.54, 300.42 230.94, 360.9 163.05 M237.79 300.78 C279.69 257.17, 319.47 210.56, 359.65 162.29 M247.22 296.24 C276.55 262.33, 307.08 225.78, 356.06 167.69 M246.39 297.02 C286.84 253.62, 324.88 207.71, 358.37 169.06 M255.83 291.43 C279.38 265.1, 304.88 237.2, 357.96 178.41 M255.74 292.38 C287.34 255.26, 320.6 217.33, 355.83 176.76 M263.87 290.02 C286.37 265.58, 307.15 239.8, 355.6 184.21 M264.59 288.08 C293.05 255.53, 322.99 222.92, 355.21 185.22 M272.02 282.56 C296.67 259.71, 317.13 234.54, 351.65 193.12 M273.15 284.31 C303.22 249.12, 334.52 214.57, 352.57 192.28 M283.19 282.14 C302.14 256.36, 324.4 231.72, 347.23 207.06 M282.25 279.51 C302.64 259.29, 320.19 236.85, 347.03 204.7 M286.52 279.95 C304.99 264.23, 321.55 244.74, 333.83 224.07 M286.87 282.06 C305.37 260.96, 323.59 239.73, 335.2 225.45 M305.67 263.7 C311.17 262.05, 313.86 254.21, 321.88 243.62 M306.87 263.6 C310.53 260.13, 314.95 255.33, 323.21 244.98" stroke="#ffc9c9" stroke-width="0.5" fill="none"></path><path d="M197.81 0.36 C214.57 -0.6, 231.66 5.46, 247.68 11.54 C263.7 17.62, 280.33 26.95, 293.94 36.86 C307.54 46.77, 319.88 58.27, 329.32 70.97 C338.77 83.68, 345.93 98.38, 350.61 113.1 C355.28 127.81, 357.85 143.83, 357.38 159.24 C356.91 174.65, 353.5 191, 347.76 205.56 C342.03 220.12, 333.47 234.41, 322.98 246.61 C312.49 258.8, 299 269.78, 284.83 278.74 C270.67 287.71, 254.26 294.97, 238.02 300.38 C221.77 305.8, 204.7 310.22, 187.37 311.23 C170.04 312.23, 151.17 310.36, 134.05 306.42 C116.92 302.47, 99.75 295.85, 84.6 287.57 C69.45 279.28, 54.5 268.12, 43.15 256.71 C31.79 245.29, 23.28 233.05, 16.46 219.09 C9.64 205.12, 4.59 188.09, 2.23 172.92 C-0.13 157.75, -0.51 142.95, 2.32 128.07 C5.16 113.18, 11.02 97.2, 19.24 83.6 C27.45 70, 39.33 57.22, 51.62 46.45 C63.91 35.69, 77.67 26.13, 92.95 19.03 C108.24 11.93, 123.47 6.47, 143.32 3.87 C163.16 1.28, 197.99 2.52, 212.03 3.46 C226.06 4.41, 227.93 7.2, 227.54 9.52 M117.66 9.36 C132.34 1.91, 153.67 0.71, 171.13 -0.16 C188.59 -1.02, 205.73 0.43, 222.41 4.18 C239.1 7.93, 256.18 14.2, 271.24 22.32 C286.3 30.43, 300.9 41.41, 312.77 52.89 C324.64 64.37, 335.2 77.05, 342.45 91.17 C349.69 105.29, 354.09 122.15, 356.25 137.61 C358.4 153.07, 358.53 168.89, 355.38 183.91 C352.22 198.92, 345.5 214.23, 337.32 227.69 C329.15 241.15, 318.51 254.08, 306.31 264.68 C294.11 275.28, 279.46 283.94, 264.12 291.3 C248.78 298.65, 231.85 305.56, 214.28 308.81 C196.71 312.06, 176.46 312.42, 158.69 310.8 C140.93 309.18, 123.38 305.21, 107.7 299.11 C92.02 293, 77.6 284.23, 64.61 274.14 C51.61 264.06, 39.5 251.53, 29.73 238.6 C19.97 225.66, 10.94 211.15, 6.01 196.54 C1.08 181.92, -0.59 166.08, 0.15 150.93 C0.88 135.78, 4.77 119.81, 10.43 105.61 C16.09 91.42, 24.11 78.22, 34.11 65.73 C44.11 53.24, 56.74 40.03, 70.43 30.65 C84.13 21.28, 108.27 12.75, 116.29 9.47 C124.3 6.19, 117.5 8.49, 118.52 10.98" stroke="#1e1e1e" stroke-width="1" fill="none"></path></g><g stroke-linecap="round" transform="translate(261.53125 63.61328125) rotate(0 178.3515625 155.236328125)"><path d="M38.7 58.82 C38.7 58.82, 38.7 58.82, 38.7 58.82 M38.7 58.82 C38.7 58.82, 38.7 58.82, 38.7 58.82 M23.08 83.91 C33.17 69.41, 49.55 51.88, 55.03 46.67 M21.79 83.75 C32.01 71.18, 42.99 59.23, 55.1 45.36 M13.78 101.22 C38.01 73.87, 59.66 47.49, 71.62 30.37 M12.88 100.57 C28.45 84.1, 42.64 67.37, 72.51 31.4 M11.55 110.46 C32.51 85.5, 51.88 59.44, 78.82 29.13 M11.57 108.59 C32.46 83.76, 54.63 58.59, 81.19 29.62 M10.46 117.96 C37.71 86, 66.11 51.35, 88.35 25.83 M9.66 117.06 C25.1 99.75, 42.62 79.82, 89.06 25.88 M7.38 127.97 C34.17 96.23, 61.23 61.89, 98.46 22.71 M6.58 126.99 C29.38 99.83, 53.33 72.82, 98.69 21.49 M6.8 133.74 C40.77 94.81, 76.41 52.84, 105.23 16.08 M4.65 133.31 C36.84 96.6, 69.54 60.93, 105.94 18.02 M1.52 144.44 C35.76 104.99, 70.97 63.86, 114.55 15.19 M1.3 143.69 C30.48 111.02, 62.5 75.17, 114.5 13.15 M3.18 151.78 C35.57 111.88, 65.49 75.48, 126.08 8.72 M2.06 150.36 C36.4 108.19, 71.25 68.48, 125.28 7.18 M0.61 157.56 C28.63 124.98, 54.28 96.6, 132.15 6.7 M2.3 155.55 C47.01 105.98, 90.05 56.76, 131.77 6.06 M4.04 161.96 C40.27 117.28, 79.18 74.31, 136.24 6.45 M2.23 161.01 C39.22 119.3, 75.04 77.24, 137.84 7.17 M2.84 166.89 C50.43 111.83, 96.23 58.53, 143.94 5.64 M2.92 166.77 C41.95 124.6, 79.29 80.66, 144.05 5.89 M2.43 171.51 C44.66 121.99, 86.24 76.33, 148.46 5.54 M3.77 172.67 C58.66 111.26, 112.07 47.31, 148.81 4.33 M2.44 178.63 C41.14 133.14, 80.07 88.33, 155.56 5.81 M4.51 178.6 C55.86 118.63, 107.53 58.79, 154 4.93 M2.89 184.39 C66.13 115.45, 122.9 47.69, 161.14 2 M4.46 183.97 C61.63 120.39, 116.59 55.68, 161.34 2.8 M5.38 189.87 C64.72 123.39, 121 57.73, 165.45 1.52 M4.98 188.9 C48.6 139.73, 91.29 92.22, 166.43 2.87 M8.05 191.88 C40.73 151.09, 75.76 114.47, 174.52 3.35 M8.05 192.73 C59.35 133.11, 111.58 72.79, 173.55 1.28 M10.18 197.8 C49.23 150.69, 91.04 101.78, 177.61 1.46 M8.9 195.74 C45.37 156.26, 80.46 115.11, 178.03 0.99 M9.76 200.24 C51.86 155.25, 88.99 109.09, 184.32 1.64 M10.36 200.7 C47.74 159.88, 82.25 118.98, 183.46 2.48 M13.59 205.35 C78.11 131.72, 141.06 59.09, 186.56 3.65 M13.16 203.97 C78.22 128.51, 143.52 53.86, 188.29 3.21 M15.25 209 C57.99 160.54, 101.16 112.66, 192.48 1.85 M15.08 207.93 C72.89 142.44, 130.53 76.63, 192.22 2.82 M15.34 211.39 C84.61 135.01, 151.76 57.59, 196.78 4.81 M16.37 211.52 C59.82 161.85, 103.13 111.85, 198.42 3.07 M17.81 215.71 C63.46 164.25, 105.66 111.76, 202.06 3.66 M18.21 216.25 C59.3 169.66, 99.4 124.23, 201.62 4.37 M18.73 220.49 C90.65 137.95, 163.57 54.14, 207.31 4.25 M20.24 220.11 C75.3 158.3, 131.17 95.68, 206.5 4.53 M21.96 224.63 C97.53 138.17, 173.12 52.31, 210.13 6.32 M22.86 223.32 C94.86 138.71, 167.81 53.97, 210.83 5.91 M24.82 229.11 C78.36 162.62, 134.46 98.98, 216.86 7.03 M24.6 228.44 C86.77 158.46, 147.52 87.46, 216.21 7.24 M26.48 233.44 C79.59 170.98, 133 110.62, 220.54 8 M24.89 233.2 C97.44 146.59, 171.28 63.25, 222.11 7.76 M29.13 236.58 C82.25 175.25, 134.74 112.69, 225.79 7.24 M27.68 235.99 C88.36 168.5, 147.71 99.6, 225.76 7.51 M29.47 239.53 C101.57 157.82, 174.06 77.97, 230.54 7.47 M30.39 239.06 C86.76 175.89, 140.73 113.49, 231.52 8.09 M32.78 241.81 C86.39 182.25, 138.88 122.55, 234.5 10.57 M33.32 242.17 C96.09 170.42, 159.44 98.18, 234.84 10.95 M34.94 243.8 C112.99 156.74, 188.16 70.24, 238.15 11.11 M36.46 244.2 C82.96 191.97, 129.56 137.9, 238.26 10.89 M37.98 248.53 C94.6 178.38, 155.04 110.26, 243.22 13.52 M38.75 247.94 C87.66 190.14, 136.44 134.79, 242.17 13.93 M42.8 250.27 C118.32 160.15, 197.58 70.11, 247.62 15.37 M41.24 250.69 C108.95 173.14, 175.46 95.15, 246.5 14.93 M44.49 253.59 C117.98 169.14, 191.56 84.93, 250.71 16.61 M43.39 253.48 C94.57 193.65, 147.21 134, 250.57 16.12 M48.02 256.16 C100.53 197.38, 153.53 137.65, 256.14 17.94 M46.3 257.32 C112.54 182.75, 176.65 108.59, 254.26 16.93 M49.26 259.24 C119.43 176.87, 191.79 93.17, 257.22 18.62 M48.97 259.63 C120.22 179.39, 189.85 99.79, 259.14 19.63 M53.43 261.93 C134.73 167.47, 218.29 73.05, 262.37 20.48 M51.59 263.26 C108.83 199.21, 164.61 135.75, 262.61 20.7 M53.5 265.93 C119.57 189.71, 182.33 116.42, 266.44 22.94 M54.57 265.83 C128.48 182.11, 202.23 96.42, 266.13 22.01 M56.87 269.79 C106.5 213.37, 153.49 159.26, 270.52 24.24 M57.61 268.74 C124.12 189.64, 192.93 111.69, 270.7 23.67 M61.75 270.25 C141.13 182.72, 217.76 91.83, 275.71 24.9 M60.81 271.44 C144.13 178.92, 225.11 85.13, 273.88 25.34 M65.11 272.5 C129.47 196.9, 194.7 122.18, 277.78 26.02 M64.58 272.81 C143.28 182.96, 222.88 90.87, 279.25 26.1 M68.86 275.42 C119.93 216.59, 170.4 156.66, 282.47 27.98 M68.52 274.42 C151.95 177.21, 234.62 81.18, 281.72 29.3 M71.88 278.64 C118.06 221.79, 167.1 166.27, 284.91 32.83 M70.71 277.17 C142.76 192.91, 215.3 108.6, 285.14 31.18 M75.32 279.06 C138.95 206.19, 203.25 134.18, 289.61 32.43 M75.38 279.23 C148.11 192.35, 222.93 105.76, 288.17 33.17 M77.7 281.11 C140.58 208.73, 200.68 138.58, 290.33 36.42 M78.7 281.58 C145.18 203.79, 212.59 126.24, 291.37 36.79 M80.11 285.09 C150 207.29, 217.45 128.45, 295.17 37.53 M81.89 284.51 C152.85 201.83, 223.36 120.71, 295 38.63 M84.55 285.07 C135.43 229.64, 184.12 175.64, 296.79 41.04 M85.71 286.35 C132.78 230.06, 180.61 175.07, 297.92 41.9 M87.67 288.87 C157.76 212.29, 224.25 133.21, 299.86 44.92 M89.41 288.2 C172.78 192.36, 256.35 96.36, 300.36 44.18 M93.58 290.31 C160.41 213.95, 227.39 136.1, 305.52 46.19 M92.74 289.08 C164.25 205.98, 236.71 121.41, 304.79 46.57 M96.35 291.76 C162.4 213.3, 229.48 135.3, 307.88 49.69 M94.76 291.86 C160.71 218.01, 226.32 143.55, 307.05 47.95 M98.4 293.02 C147.43 239.16, 196.24 182.73, 309.52 51.32 M98.68 294.21 C182.47 196.56, 266.23 98.87, 310.22 51.81 M101.51 297.42 C148.15 244.04, 193.47 191.27, 312.41 55.12 M102.42 296.14 C153.31 240.62, 202.89 184.27, 312.99 53.47 M106.34 297.14 C186.15 203.4, 268.11 110.86, 316.25 57.45 M106.93 297.19 C162.25 233.21, 217.74 170.09, 316.02 56.33 M110.35 297.36 C166.74 230.7, 225.2 165.26, 321.03 57.61 M110.84 298.24 C160.53 241.74, 209.35 185.68, 320.64 58.08 M114.38 300.27 C164.61 241.79, 215.26 184.26, 320.69 61.17 M116.04 298.87 C171.99 235.21, 227.87 171.26, 322.18 62.46 M119.75 301.82 C168.78 245.17, 216.76 191.11, 324.9 64.84 M120.16 301.12 C194.68 213.66, 269.04 128.33, 323.5 66.18 M124.45 300.26 C195.04 220.13, 264.53 137.09, 325.47 67.82 M124.36 301.93 C180.03 236.86, 236.17 171.84, 326.69 68.95 M129.29 303.75 C172.09 255.09, 214.09 205.26, 327.88 73.21 M129.27 303.38 C206.15 214.77, 282.63 124.41, 329.22 72.8 M134.16 304.64 C193.46 233.76, 257.19 161.51, 330.41 76.86 M132.85 303.6 C173.77 254.29, 216.31 206.56, 331.3 76.66 M138.47 304.13 C175.47 258.12, 214.81 213.46, 331.49 78.91 M137.85 304.28 C187.85 248.67, 238.96 189.5, 333.61 80.04 M143.15 306.94 C189.45 251.12, 237.57 196.72, 335.12 84.4 M142.37 305.79 C209.6 229.33, 275.33 153.76, 334.91 83.5 M145.24 308.17 C219.76 222.42, 293.77 137.06, 337.79 85.63 M145.82 307.48 C189.58 255.44, 233.4 204.2, 336.99 86.6 M151.79 308.27 C206.98 239.63, 264.91 174.41, 340.13 91.29 M149.85 308.6 C221.66 223.92, 294.18 139.47, 339.77 90.37 M152.84 309.65 C192.1 266.48, 231.06 221.35, 342.4 94.74 M153.35 310.82 C224.35 232.51, 291.74 152.74, 341.37 94.61 M160.34 309.41 C228.87 234.34, 295.96 157.41, 344.52 96.55 M160.21 310.25 C198.14 267.29, 234.97 225.2, 343.94 98.13 M163.99 310.87 C215.76 250.67, 267.58 189.18, 345.94 101.91 M164.84 310.47 C202.51 266.82, 240.58 224.25, 344.69 102.77 M169.1 310.87 C226.82 246.8, 284.3 182.07, 347.28 108 M169.2 310.78 C225.13 247.92, 279.93 183.91, 346.36 106.89 M175.53 311.58 C234.72 242.09, 294.33 173.16, 348.22 112.31 M175.13 310.16 C229.55 250.53, 282.03 189.19, 347.74 111.64 M180.8 310.46 C215.07 272.73, 248.88 233.07, 350.29 117.86 M180.06 310.64 C244.83 238.91, 306.68 165.36, 349.08 116.75 M184.52 310.21 C224.8 263.13, 262.88 220.75, 350.49 119.95 M185.87 311.42 C237.87 251.9, 289.87 191.25, 351 120.67 M191.98 311.88 C235.52 262.99, 276.07 211.06, 352.87 126.34 M191.37 310.62 C239.93 254.21, 286.86 199.21, 351.03 126.33 M196.4 312.29 C249.12 249.52, 300.23 189.37, 351.87 130.23 M195.31 311.06 C240.05 261.57, 283.89 210.47, 353.46 131.23 M201.41 312.83 C247.08 259.6, 292.65 206.92, 353.85 134.03 M201.42 311.96 C252.28 248.98, 306.52 187.98, 354.24 134.82 M206.51 310.53 C261.58 251.05, 315.52 187.73, 354.27 138.7 M206.47 311.41 C258.1 251.17, 308.86 191.69, 354.96 138.64 M212.59 308.35 C256.61 261.3, 296 209.69, 355.43 144.56 M213 309.22 C245.92 272.66, 279.11 234.72, 356.91 143.82 M221.34 305.15 C266.04 253.9, 310.05 202.27, 354.78 149.06 M221.46 307.04 C255.89 266.7, 290.79 225.94, 356.32 149.84 M227.67 305.65 C255.57 274.97, 280.42 246.31, 356.49 158.44 M228.31 303.42 C276 247.26, 324.72 191.31, 355.36 157.2 M233.53 300.77 C261.86 271.89, 289.98 241.02, 353.31 165.22 M235.75 302.15 C266.32 265.3, 296.27 230.66, 354.17 166.01 M240.84 302.07 C283.41 254.27, 326.93 205.72, 354.06 172.15 M241.06 299.57 C280 257.25, 319.81 212.87, 354.77 171.53 M248.67 299.8 C282.12 263.63, 314.47 225.14, 353.09 179.87 M249.13 297.64 C290.81 251.09, 331.33 204.64, 354.26 178.24 M257.17 293.62 C284.88 264.99, 316.14 231.61, 351.36 183.71 M256.94 295.93 C288.72 257.16, 322.3 219.13, 353.56 184.77 M267 288.43 C288.06 267.59, 305.96 247.31, 355.19 190.54 M268.43 289.43 C302.49 250.86, 333.59 214.08, 352.64 189.81 M278.1 283.15 C298.54 258.95, 320.82 237.63, 348.4 202.39 M279.73 282.44 C298.23 259.59, 319.06 237.11, 348.07 201.71 M288.86 277.56 C304.27 260.84, 317.54 241.12, 344.01 213.1 M289.85 275.37 C309.94 252.27, 331.18 226.58, 343.27 214.2 M300.26 267.6 C314.01 254.81, 329.11 237.54, 339.87 226.27 M301.22 269.1 C308.38 261.02, 317.09 250.25, 337.57 226.37" stroke="#b2f2bb" stroke-width="0.5" fill="none"></path><path d="M229.66 7.76 C246.47 9.51, 263.33 17.57, 278.14 25.87 C292.94 34.17, 307.61 45.67, 318.49 57.56 C329.36 69.46, 337.1 82.91, 343.38 97.24 C349.66 111.57, 354.79 128.14, 356.18 143.54 C357.56 158.94, 355.42 174.8, 351.69 189.63 C347.96 204.46, 342.42 219.23, 333.8 232.52 C325.19 245.81, 312.84 258.99, 299.99 269.39 C287.13 279.78, 272.41 288.22, 256.66 294.9 C240.9 301.58, 222.83 307.21, 205.46 309.46 C188.09 311.72, 169.65 310.65, 152.44 308.41 C135.24 306.18, 118.12 302.69, 102.21 296.07 C86.3 289.45, 69.89 279.31, 56.99 268.71 C44.09 258.11, 33.54 245.57, 24.83 232.45 C16.11 219.33, 8.7 204.67, 4.7 189.98 C0.7 175.28, -0.39 159.4, 0.85 144.27 C2.08 129.15, 5.84 113.39, 12.1 99.21 C18.36 85.02, 27.35 71.08, 38.41 59.15 C49.47 47.22, 64.12 36.32, 78.45 27.61 C92.78 18.89, 107.85 11.34, 124.39 6.84 C140.93 2.34, 159.05 0.45, 177.7 0.6 C196.35 0.75, 225.5 5.69, 236.3 7.73 C247.1 9.77, 243.23 10.15, 242.49 12.83 M118.32 9.34 C132.65 2.05, 150.59 1.07, 167.87 0.41 C185.15 -0.25, 204.76 1.82, 221.99 5.36 C239.22 8.91, 256.1 13.87, 271.25 21.7 C286.41 29.53, 301.33 40.69, 312.9 52.35 C324.47 64.01, 333.81 77.57, 340.7 91.65 C347.58 105.73, 351.9 121.58, 354.19 136.83 C356.47 152.08, 357.12 168.19, 354.4 183.14 C351.69 198.08, 345.76 212.91, 337.9 226.5 C330.04 240.09, 319.42 253.93, 307.22 264.66 C295.03 275.38, 280.3 283.8, 264.73 290.83 C249.15 297.85, 231 303.53, 213.76 306.79 C196.53 310.05, 178.6 311.62, 161.32 310.41 C144.03 309.2, 126.3 305.55, 110.06 299.55 C93.83 293.55, 77.41 284.63, 63.9 274.41 C50.39 264.18, 38.41 251.21, 28.99 238.19 C19.57 225.16, 12.01 210.84, 7.36 196.24 C2.71 181.63, 0.8 165.8, 1.08 150.56 C1.36 135.32, 3.49 119.12, 9.03 104.79 C14.56 90.46, 24.27 76.95, 34.31 64.59 C44.35 52.24, 55.29 40.07, 69.27 30.65 C83.24 21.23, 109.78 11.25, 118.14 8.09 C126.5 4.93, 118.42 8.86, 119.42 11.68" stroke="#1e1e1e" stroke-width="1" fill="none"></path></g><g transform="translate(72.23046875 10) rotate(0 98.03990173339844 12.5)"><text x="0" y="0" font-family="Virgil, Segoe UI Emoji" font-size="20px" fill="#1e1e1e" text-anchor="start" style="white-space: pre;" direction="ltr" dominant-baseline="text-before-edge">Postgres use cases</text></g><g transform="translate(344.87890625 12.2890625) rotate(0 120.75989532470703 12.5)"><text x="0" y="0" font-family="Virgil, Segoe UI Emoji" font-size="20px" fill="#1e1e1e" text-anchor="start" style="white-space: pre;" direction="ltr" dominant-baseline="text-before-edge">Elasticsearch use cases</text></g><g stroke-linecap="round"><g transform="translate(372.14500521659306 391.02734375) rotate(0 -29.02017098765549 -68.91691269986333)"><path d="M0.61 0.2 C-8.8 -22.88, -47.83 -115.2, -57.47 -138.03 M-0.53 -0.74 C-10.04 -23.7, -49.07 -113.71, -58.65 -136.7" stroke="#1e1e1e" stroke-width="1" fill="none"></path></g><g transform="translate(372.14500521659306 391.02734375) rotate(0 -29.02017098765549 -68.91691269986333)"><path d="M-37.83 -115.53 C-43.31 -119.69, -45.63 -122.89, -60.29 -137.98 M-38.63 -114.66 C-45.79 -123.31, -52.38 -129.49, -58.98 -136.36" stroke="#1e1e1e" stroke-width="1" fill="none"></path></g><g transform="translate(372.14500521659306 391.02734375) rotate(0 -29.02017098765549 -68.91691269986333)"><path d="M-56.71 -107.49 C-58.15 -113.47, -56.41 -118.41, -60.29 -137.98 M-57.51 -106.62 C-58.03 -118.19, -57.93 -127.22, -58.98 -136.36" stroke="#1e1e1e" stroke-width="1" fill="none"></path></g></g><mask></mask><g transform="translate(359.734375 392.42578125) rotate(0 103.11991119384766 25)"><text x="0" y="0" font-family="Virgil, Segoe UI Emoji" font-size="20px" fill="#1e1e1e" text-anchor="start" style="white-space: pre;" direction="ltr" dominant-baseline="text-before-edge">full-text search</text><text x="0" y="25" font-family="Virgil, Segoe UI Emoji" font-size="20px" fill="#1e1e1e" text-anchor="start" style="white-space: pre;" direction="ltr" dominant-baseline="text-before-edge">on smallish datasets</text></g></svg>