<svg version="1.1" xmlns="http://www.w3.org/2000/svg" viewBox="0 0 407.81640625 301.046875" width="407.81640625" height="301.046875">
  <!-- svg-source:excalidraw -->
  
  <defs>
    <style class="style-fonts">
      @font-face {
        font-family: "Virgil";
        src: url("https://excalidraw.com/Virgil.woff2");
      }
      @font-face {
        font-family: "Cascadia";
        src: url("https://excalidraw.com/Cascadia.woff2");
      }
    </style>
    
  </defs>
  <rect x="0" y="0" width="407.81640625" height="301.046875" fill="#ffffff"></rect><g stroke-linecap="round" transform="translate(101.86328125 10) rotate(0 100.611328125 48.7734375)"><path d="M5.84 6.4 C5.84 6.4, 5.84 6.4, 5.84 6.4 M5.84 6.4 C5.84 6.4, 5.84 6.4, 5.84 6.4 M0.33 18.83 C3.83 14.8, 7.34 10.76, 14.76 2.23 M0.33 18.83 C5.25 13.17, 10.17 7.51, 14.76 2.23 M0.72 24.48 C6.93 17.34, 13.13 10.2, 20.4 1.83 M0.72 24.48 C6.91 17.35, 13.1 10.23, 20.4 1.83 M0.46 30.87 C9.56 20.41, 18.66 9.94, 26.04 1.44 M0.46 30.87 C10.41 19.42, 20.37 7.97, 26.04 1.44 M0.2 37.27 C8.51 27.71, 16.81 18.16, 31.03 1.8 M0.2 37.27 C8.22 28.05, 16.23 18.82, 31.03 1.8 M0.59 42.91 C10.63 31.37, 20.66 19.83, 36.67 1.41 M0.59 42.91 C14.45 26.97, 28.31 11.03, 36.67 1.41 M0.33 49.31 C14.38 33.15, 28.44 16.98, 41.66 1.77 M0.33 49.31 C8.89 39.47, 17.45 29.62, 41.66 1.77 M0.72 54.96 C13.45 40.32, 26.17 25.69, 47.3 1.37 M0.72 54.96 C14.32 39.31, 27.92 23.67, 47.3 1.37 M0.46 61.35 C19.97 38.91, 39.48 16.47, 52.29 1.73 M0.46 61.35 C18.46 40.65, 36.46 19.95, 52.29 1.73 M0.2 67.75 C20.51 44.38, 40.83 21.02, 57.93 1.34 M0.2 67.75 C20.69 44.18, 41.19 20.6, 57.93 1.34 M0.6 73.39 C20.94 49.99, 41.28 26.59, 62.92 1.7 M0.6 73.39 C25.45 44.8, 50.3 16.21, 62.92 1.7 M0.99 79.04 C26.25 49.98, 51.51 20.92, 68.57 1.3 M0.99 79.04 C27.49 48.56, 53.98 18.08, 68.57 1.3 M2.04 83.93 C26.09 56.26, 50.15 28.59, 73.55 1.66 M2.04 83.93 C23.95 58.72, 45.86 33.52, 73.55 1.66 M3.75 88.06 C29.92 57.95, 56.1 27.83, 79.2 1.27 M3.75 88.06 C26.31 62.11, 48.86 36.16, 79.2 1.27 M6.11 91.44 C25.7 68.9, 45.29 46.37, 84.18 1.63 M6.11 91.44 C32.77 60.77, 59.42 30.11, 84.18 1.63 M9.13 94.06 C35.58 63.64, 62.03 33.21, 89.83 1.23 M9.13 94.06 C37.18 61.79, 65.23 29.52, 89.83 1.23 M12.15 96.69 C38.04 66.9, 63.93 37.12, 94.81 1.59 M12.15 96.69 C28.83 77.5, 45.51 58.31, 94.81 1.59 M16.48 97.8 C43.44 66.79, 70.4 35.77, 100.46 1.2 M16.48 97.8 C40.56 70.1, 64.63 42.41, 100.46 1.2 M20.81 98.92 C43.23 73.13, 65.65 47.34, 105.44 1.56 M20.81 98.92 C47.2 68.55, 73.6 38.19, 105.44 1.56 M25.8 99.28 C58.22 61.98, 90.64 24.68, 111.09 1.16 M25.8 99.28 C46.39 75.59, 66.98 51.9, 111.09 1.16 M31.44 98.88 C52.25 74.94, 73.06 51, 116.07 1.52 M31.44 98.88 C58.75 67.47, 86.06 36.05, 116.07 1.52 M36.43 99.24 C62.59 69.15, 88.75 39.05, 121.72 1.13 M36.43 99.24 C54.65 78.28, 72.87 57.32, 121.72 1.13 M42.07 98.85 C67.01 70.16, 91.95 41.46, 126.7 1.49 M42.07 98.85 C59.99 78.23, 77.92 57.61, 126.7 1.49 M47.06 99.21 C77 64.77, 106.94 30.32, 132.35 1.1 M47.06 99.21 C79.61 61.76, 112.16 24.32, 132.35 1.1 M52.7 98.81 C73.71 74.65, 94.71 50.48, 137.33 1.46 M52.7 98.81 C85.14 61.5, 117.58 24.18, 137.33 1.46 M57.69 99.17 C84.06 68.83, 110.44 38.49, 142.32 1.82 M57.69 99.17 C74.64 79.67, 91.59 60.17, 142.32 1.82 M63.33 98.78 C83.79 75.24, 104.25 51.71, 147.96 1.42 M63.33 98.78 C94.47 62.96, 125.61 27.14, 147.96 1.42 M68.32 99.14 C88.26 76.2, 108.2 53.26, 152.95 1.78 M68.32 99.14 C93.81 69.82, 119.29 40.5, 152.95 1.78 M73.96 98.74 C91.65 78.39, 109.35 58.04, 158.59 1.39 M73.96 98.74 C101.29 67.3, 128.62 35.86, 158.59 1.39 M78.95 99.1 C105.89 68.11, 132.84 37.11, 163.58 1.75 M78.95 99.1 C112.14 60.92, 145.33 22.74, 163.58 1.75 M84.59 98.71 C116.95 61.48, 149.31 24.26, 169.22 1.35 M84.59 98.71 C112.7 66.38, 140.8 34.04, 169.22 1.35 M89.58 99.07 C106.84 79.22, 124.1 59.36, 174.21 1.71 M89.58 99.07 C119.88 64.21, 150.18 29.35, 174.21 1.71 M95.22 98.67 C128.16 60.78, 161.1 22.88, 179.2 2.07 M95.22 98.67 C120.9 69.13, 146.59 39.59, 179.2 2.07 M100.21 99.03 C124.11 71.54, 148 44.05, 184.18 2.43 M100.21 99.03 C130.43 64.27, 160.64 29.51, 184.18 2.43 M105.85 98.64 C136.51 63.38, 167.16 28.11, 189.17 2.79 M105.85 98.64 C129.27 71.7, 152.68 44.76, 189.17 2.79 M110.84 99 C127.33 80.03, 143.83 61.05, 192.85 4.66 M110.84 99 C138.33 67.37, 165.83 35.74, 192.85 4.66 M115.83 99.36 C134.78 77.56, 153.72 55.76, 195.86 7.29 M115.83 99.36 C141.54 69.78, 167.25 40.2, 195.86 7.29 M121.47 98.97 C148.01 68.44, 174.55 37.91, 198.88 9.91 M121.47 98.97 C144.59 72.37, 167.72 45.77, 198.88 9.91 M126.46 99.33 C142.97 80.33, 159.49 61.33, 199.93 14.8 M126.46 99.33 C142.36 81.02, 158.27 62.72, 199.93 14.8 M132.1 98.93 C156.25 71.15, 180.41 43.36, 201.64 18.93 M132.1 98.93 C148.85 79.66, 165.6 60.39, 201.64 18.93 M137.09 99.29 C160 72.94, 182.91 46.58, 201.38 25.33 M137.09 99.29 C161.74 70.93, 186.39 42.57, 201.38 25.33 M142.73 98.9 C154.58 85.26, 166.44 71.63, 201.77 30.97 M142.73 98.9 C156.27 83.32, 169.81 67.75, 201.77 30.97 M147.72 99.26 C166.78 77.33, 185.84 55.4, 201.51 37.37 M147.72 99.26 C167.37 76.65, 187.02 54.05, 201.51 37.37 M153.36 98.86 C169.75 80.01, 186.14 61.15, 201.91 43.01 M153.36 98.86 C168.31 81.67, 183.25 64.47, 201.91 43.01 M158.35 99.22 C173.07 82.29, 187.78 65.36, 201.65 49.41 M158.35 99.22 C172.71 82.7, 187.07 66.18, 201.65 49.41 M163.99 98.83 C176.74 84.16, 189.49 69.49, 201.38 55.81 M163.99 98.83 C178.84 81.74, 193.69 64.66, 201.38 55.81 M168.98 99.19 C179.9 86.63, 190.82 74.06, 201.78 61.45 M168.98 99.19 C181.41 84.88, 193.84 70.58, 201.78 61.45 M174.62 98.79 C181.13 91.3, 187.65 83.81, 201.52 67.85 M174.62 98.79 C185.22 86.59, 195.83 74.39, 201.52 67.85 M178.95 99.91 C187.02 90.63, 195.09 81.34, 201.91 73.49 M178.95 99.91 C184.24 93.83, 189.52 87.75, 201.91 73.49 M187.87 95.74 C190.92 92.24, 193.97 88.73, 201.65 79.89 M187.87 95.74 C191.63 91.42, 195.39 87.09, 201.65 79.89" stroke="#d0bfff" stroke-width="0.5" fill="none"></path><path d="M24.39 0 M24.39 0 C71.94 0, 119.49 0, 176.84 0 M24.39 0 C75.4 0, 126.42 0, 176.84 0 M176.84 0 C193.09 0, 201.22 8.13, 201.22 24.39 M176.84 0 C193.09 0, 201.22 8.13, 201.22 24.39 M201.22 24.39 C201.22 37.59, 201.22 50.79, 201.22 73.16 M201.22 24.39 C201.22 35.99, 201.22 47.6, 201.22 73.16 M201.22 73.16 C201.22 89.42, 193.09 97.55, 176.84 97.55 M201.22 73.16 C201.22 89.42, 193.09 97.55, 176.84 97.55 M176.84 97.55 C122.54 97.55, 68.24 97.55, 24.39 97.55 M176.84 97.55 C141.13 97.55, 105.42 97.55, 24.39 97.55 M24.39 97.55 C8.13 97.55, 0 89.42, 0 73.16 M24.39 97.55 C8.13 97.55, 0 89.42, 0 73.16 M0 73.16 C0 57.56, 0 41.96, 0 24.39 M0 73.16 C0 54.48, 0 35.8, 0 24.39 M0 24.39 C0 8.13, 8.13 0, 24.39 0 M0 24.39 C0 8.13, 8.13 0, 24.39 0" stroke="#1e1e1e" stroke-width="1" fill="none"></path></g><g transform="translate(163.01171875 47.2734375) rotate(0 39.462890625 11.5)"><text x="39.462890625" y="0" font-family="Helvetica, Segoe UI Emoji" font-size="20px" fill="#1e1e1e" text-anchor="middle" style="white-space: pre;" direction="ltr" dominant-baseline="text-before-edge">Postgres</text></g><g stroke-linecap="round" transform="translate(10 214.046875) rotate(0 73 38.5)"><path d="M5.12 4.45 C5.12 4.45, 5.12 4.45, 5.12 4.45 M5.12 4.45 C5.12 4.45, 5.12 4.45, 5.12 4.45 M0.93 15.38 C5.3 10.35, 9.67 5.32, 12.08 2.55 M0.93 15.38 C4.68 11.06, 8.43 6.75, 12.08 2.55 M0.66 21.78 C6.49 15.07, 12.32 8.37, 19.69 -0.11 M0.66 21.78 C7.27 14.18, 13.87 6.59, 19.69 -0.11 M1.06 27.42 C8.12 19.3, 15.18 11.18, 24.68 0.25 M1.06 27.42 C6.99 20.6, 12.91 13.79, 24.68 0.25 M0.8 33.82 C10.88 22.22, 20.96 10.63, 30.32 -0.14 M0.8 33.82 C10.47 22.69, 20.15 11.56, 30.32 -0.14 M1.19 39.46 C13.05 25.82, 24.91 12.18, 35.31 0.22 M1.19 39.46 C11.88 27.17, 22.56 14.88, 35.31 0.22 M0.93 45.86 C9.01 36.57, 17.08 27.28, 40.95 -0.18 M0.93 45.86 C13.78 31.08, 26.63 16.3, 40.95 -0.18 M0.67 52.26 C13.65 37.33, 26.63 22.4, 45.94 0.18 M0.67 52.26 C12.66 38.46, 24.65 24.67, 45.94 0.18 M1.06 57.9 C16.61 40.01, 32.16 22.13, 50.92 0.54 M1.06 57.9 C20.02 36.1, 38.97 14.29, 50.92 0.54 M1.46 63.54 C14.77 48.24, 28.07 32.93, 56.57 0.15 M1.46 63.54 C15.01 47.96, 28.56 32.37, 56.57 0.15 M3.17 67.68 C22.01 46, 40.85 24.33, 61.55 0.51 M3.17 67.68 C21.08 47.07, 38.99 26.47, 61.55 0.51 M4.87 71.81 C18.19 56.49, 31.5 41.17, 67.2 0.11 M4.87 71.81 C23.24 50.68, 41.61 29.55, 67.2 0.11 M7.89 74.44 C21.51 58.77, 35.12 43.11, 72.18 0.47 M7.89 74.44 C30.46 48.47, 53.03 22.51, 72.18 0.47 M12.22 75.55 C37.26 46.75, 62.3 17.95, 77.83 0.08 M12.22 75.55 C28.51 56.82, 44.79 38.08, 77.83 0.08 M15.9 77.42 C41.55 47.91, 67.2 18.41, 82.81 0.44 M15.9 77.42 C36.75 53.43, 57.61 29.44, 82.81 0.44 M20.88 77.78 C34.42 62.21, 47.96 46.64, 88.46 0.04 M20.88 77.78 C37.22 58.99, 53.55 40.2, 88.46 0.04 M25.87 78.14 C50.73 49.54, 75.6 20.94, 93.44 0.4 M25.87 78.14 C41.79 59.82, 57.71 41.51, 93.44 0.4 M30.86 78.5 C51.41 54.86, 71.95 31.22, 99.09 0.01 M30.86 78.5 C45.12 62.09, 59.39 45.68, 99.09 0.01 M36.5 78.11 C58.32 53, 80.14 27.9, 104.08 0.37 M36.5 78.11 C58.02 53.36, 79.53 28.6, 104.08 0.37 M41.49 78.47 C68.25 47.68, 95.01 16.9, 109.72 -0.02 M41.49 78.47 C67.58 48.45, 93.66 18.44, 109.72 -0.02 M47.13 78.07 C69.57 52.25, 92.01 26.44, 114.71 0.34 M47.13 78.07 C60.91 62.22, 74.69 46.37, 114.71 0.34 M52.12 78.43 C76.55 50.33, 100.98 22.23, 120.35 -0.06 M52.12 78.43 C78.88 47.64, 105.65 16.85, 120.35 -0.06 M57.76 78.04 C78.43 54.26, 99.09 30.49, 125.34 0.3 M57.76 78.04 C76.99 55.91, 96.22 33.79, 125.34 0.3 M62.75 78.4 C86.59 50.97, 110.43 23.54, 129.01 2.17 M62.75 78.4 C87.13 50.35, 111.5 22.31, 129.01 2.17 M68.39 78 C86.83 56.79, 105.27 35.58, 134 2.53 M68.39 78 C81.59 62.82, 94.78 47.64, 134 2.53 M73.38 78.36 C95.37 53.06, 117.37 27.75, 138.98 2.89 M73.38 78.36 C88.91 60.49, 104.44 42.63, 138.98 2.89 M79.02 77.97 C99.25 54.69, 119.49 31.42, 142 5.52 M79.02 77.97 C100.61 53.13, 122.2 28.29, 142 5.52 M84.01 78.33 C102.04 57.59, 120.06 36.85, 144.37 8.89 M84.01 78.33 C97.58 62.72, 111.14 47.11, 144.37 8.89 M89.65 77.93 C101.87 63.88, 114.08 49.83, 146.07 13.03 M89.65 77.93 C109.25 55.39, 128.84 32.85, 146.07 13.03 M94.64 78.29 C107.44 63.57, 120.24 48.84, 147.78 17.16 M94.64 78.29 C113.58 56.51, 132.51 34.72, 147.78 17.16 M100.28 77.9 C118.65 56.77, 137.01 35.65, 148.17 22.8 M100.28 77.9 C109.9 66.84, 119.51 55.78, 148.17 22.8 M105.27 78.26 C115.05 67.01, 124.83 55.76, 147.91 29.2 M105.27 78.26 C120.38 60.88, 135.49 43.5, 147.91 29.2 M110.91 77.86 C124.57 62.15, 138.23 46.44, 148.31 34.85 M110.91 77.86 C123.54 63.34, 136.16 48.81, 148.31 34.85 M115.9 78.22 C125.8 66.84, 135.69 55.45, 148.05 41.24 M115.9 78.22 C126.83 65.65, 137.75 53.08, 148.05 41.24 M121.54 77.83 C130.46 67.57, 139.39 57.3, 148.44 46.89 M121.54 77.83 C130.71 67.28, 139.89 56.73, 148.44 46.89 M127.18 77.43 C135.52 67.84, 143.86 58.25, 148.18 53.28 M127.18 77.43 C134.17 69.39, 141.16 61.35, 148.18 53.28 M133.48 76.29 C138.95 69.99, 144.43 63.7, 147.92 59.68 M133.48 76.29 C136.98 72.26, 140.47 68.24, 147.92 59.68" stroke="#69db7c" stroke-width="0.5" fill="none"></path><path d="M19.25 0 M19.25 0 C61.63 0, 104.02 0, 126.75 0 M19.25 0 C57.02 0, 94.8 0, 126.75 0 M126.75 0 C139.58 0, 146 6.42, 146 19.25 M126.75 0 C139.58 0, 146 6.42, 146 19.25 M146 19.25 C146 29.39, 146 39.53, 146 57.75 M146 19.25 C146 27.17, 146 35.1, 146 57.75 M146 57.75 C146 70.58, 139.58 77, 126.75 77 M146 57.75 C146 70.58, 139.58 77, 126.75 77 M126.75 77 C89.81 77, 52.87 77, 19.25 77 M126.75 77 C87.03 77, 47.32 77, 19.25 77 M19.25 77 C6.42 77, 0 70.58, 0 57.75 M19.25 77 C6.42 77, 0 70.58, 0 57.75 M0 57.75 C0 49.3, 0 40.84, 0 19.25 M0 57.75 C0 48.69, 0 39.64, 0 19.25 M0 19.25 C0 6.42, 6.42 0, 19.25 0 M0 19.25 C0 6.42, 6.42 0, 19.25 0" stroke="#1e1e1e" stroke-width="1" fill="none"></path></g><g transform="translate(41.8623046875 241.046875) rotate(0 41.1376953125 11.5)"><text x="41.1376953125" y="0" font-family="Helvetica, Segoe UI Emoji" font-size="20px" fill="#1e1e1e" text-anchor="middle" style="white-space: pre;" direction="ltr" dominant-baseline="text-before-edge">Main app</text></g><g stroke-linecap="round" transform="translate(251.81640625 211.91015625) rotate(0 73 38.5)"><path d="M5.12 4.45 C5.12 4.45, 5.12 4.45, 5.12 4.45 M5.12 4.45 C5.12 4.45, 5.12 4.45, 5.12 4.45 M0.93 15.38 C5.28 10.37, 9.64 5.36, 12.08 2.55 M0.93 15.38 C4.64 11.11, 8.35 6.84, 12.08 2.55 M0.66 21.78 C7.53 13.88, 14.4 5.98, 19.69 -0.11 M0.66 21.78 C6.28 15.31, 11.9 8.85, 19.69 -0.11 M1.06 27.42 C8.83 18.48, 16.6 9.54, 24.68 0.25 M1.06 27.42 C6.62 21.03, 12.18 14.63, 24.68 0.25 M0.8 33.82 C10.33 22.85, 19.87 11.88, 30.32 -0.14 M0.8 33.82 C7.38 26.25, 13.96 18.68, 30.32 -0.14 M1.19 39.46 C10.39 28.88, 19.58 18.31, 35.31 0.22 M1.19 39.46 C12.38 26.59, 23.57 13.72, 35.31 0.22 M0.93 45.86 C9.8 35.65, 18.67 25.45, 40.95 -0.18 M0.93 45.86 C14.62 30.11, 28.31 14.37, 40.95 -0.18 M0.67 52.26 C13.68 37.29, 26.69 22.32, 45.94 0.18 M0.67 52.26 C9.75 41.81, 18.83 31.36, 45.94 0.18 M1.06 57.9 C13.92 43.12, 26.77 28.33, 50.92 0.54 M1.06 57.9 C16.25 40.43, 31.43 22.97, 50.92 0.54 M1.46 63.54 C19.89 42.34, 38.33 21.13, 56.57 0.15 M1.46 63.54 C20.3 41.87, 39.15 20.19, 56.57 0.15 M3.17 67.68 C24.12 43.57, 45.07 19.47, 61.55 0.51 M3.17 67.68 C15.45 53.54, 27.74 39.41, 61.55 0.51 M4.87 71.81 C26.01 47.5, 47.14 23.18, 67.2 0.11 M4.87 71.81 C19.75 54.69, 34.63 37.58, 67.2 0.11 M7.89 74.44 C25.84 53.79, 43.78 33.15, 72.18 0.47 M7.89 74.44 C27.72 51.62, 47.56 28.81, 72.18 0.47 M12.22 75.55 C32.31 52.45, 52.39 29.34, 77.83 0.08 M12.22 75.55 C30.35 54.7, 48.48 33.84, 77.83 0.08 M15.9 77.42 C35.92 54.39, 55.94 31.36, 82.81 0.44 M15.9 77.42 C35.68 54.66, 55.46 31.91, 82.81 0.44 M20.88 77.78 C35.55 60.91, 50.21 44.04, 88.46 0.04 M20.88 77.78 C37 59.24, 53.11 40.71, 88.46 0.04 M25.87 78.14 C47.92 52.77, 69.97 27.4, 93.44 0.4 M25.87 78.14 C40.56 61.24, 55.25 44.34, 93.44 0.4 M30.86 78.5 C53.36 52.61, 75.87 26.72, 99.09 0.01 M30.86 78.5 C45.01 62.22, 59.16 45.95, 99.09 0.01 M36.5 78.11 C63.15 47.45, 89.8 16.79, 104.08 0.37 M36.5 78.11 C61.35 49.52, 86.19 20.94, 104.08 0.37 M41.49 78.47 C60.53 56.55, 79.58 34.64, 109.72 -0.02 M41.49 78.47 C59.48 57.77, 77.47 37.07, 109.72 -0.02 M47.13 78.07 C71.71 49.8, 96.29 21.53, 114.71 0.34 M47.13 78.07 C73.41 47.84, 99.69 17.61, 114.71 0.34 M52.12 78.43 C77.78 48.91, 103.45 19.38, 120.35 -0.06 M52.12 78.43 C78.49 48.09, 104.86 17.76, 120.35 -0.06 M57.76 78.04 C72.71 60.84, 87.66 43.64, 125.34 0.3 M57.76 78.04 C82.88 49.14, 108 20.24, 125.34 0.3 M62.75 78.4 C83.19 54.88, 103.63 31.36, 129.01 2.17 M62.75 78.4 C86.16 51.46, 109.57 24.53, 129.01 2.17 M68.39 78 C93.35 49.29, 118.31 20.57, 134 2.53 M68.39 78 C91.72 51.17, 115.04 24.34, 134 2.53 M73.38 78.36 C89.16 60.21, 104.94 42.05, 138.98 2.89 M73.38 78.36 C89.13 60.24, 104.88 42.12, 138.98 2.89 M79.02 77.97 C103.05 50.33, 127.07 22.69, 142 5.52 M79.02 77.97 C93.38 61.45, 107.73 44.94, 142 5.52 M84.01 78.33 C102.91 56.59, 121.81 34.84, 144.37 8.89 M84.01 78.33 C103.39 56.03, 122.78 33.73, 144.37 8.89 M89.65 77.93 C111.71 52.56, 133.76 27.19, 146.07 13.03 M89.65 77.93 C102.35 63.33, 115.04 48.72, 146.07 13.03 M94.64 78.29 C112.9 57.29, 131.16 36.28, 147.78 17.16 M94.64 78.29 C114.27 55.71, 133.9 33.12, 147.78 17.16 M100.28 77.9 C114.74 61.27, 129.2 44.63, 148.17 22.8 M100.28 77.9 C111.36 65.15, 122.44 52.41, 148.17 22.8 M105.27 78.26 C119.17 62.27, 133.07 46.27, 147.91 29.2 M105.27 78.26 C120.46 60.79, 135.64 43.31, 147.91 29.2 M110.91 77.86 C119.67 67.79, 128.43 57.71, 148.31 34.85 M110.91 77.86 C121.38 65.82, 131.85 53.78, 148.31 34.85 M115.9 78.22 C126.53 65.99, 137.17 53.76, 148.05 41.24 M115.9 78.22 C127.18 65.24, 138.47 52.26, 148.05 41.24 M121.54 77.83 C127.84 70.58, 134.14 63.34, 148.44 46.89 M121.54 77.83 C128.32 70.03, 135.11 62.23, 148.44 46.89 M127.18 77.43 C131.49 72.48, 135.8 67.53, 148.18 53.28 M127.18 77.43 C131.85 72.07, 136.51 66.71, 148.18 53.28 M133.48 76.29 C138.89 70.06, 144.3 63.84, 147.92 59.68 M133.48 76.29 C138.94 70.01, 144.39 63.74, 147.92 59.68" stroke="#69db7c" stroke-width="0.5" fill="none"></path><path d="M19.25 0 M19.25 0 C48.56 0, 77.86 0, 126.75 0 M19.25 0 C55.38 0, 91.51 0, 126.75 0 M126.75 0 C139.58 0, 146 6.42, 146 19.25 M126.75 0 C139.58 0, 146 6.42, 146 19.25 M146 19.25 C146 29.06, 146 38.88, 146 57.75 M146 19.25 C146 30.29, 146 41.32, 146 57.75 M146 57.75 C146 70.58, 139.58 77, 126.75 77 M146 57.75 C146 70.58, 139.58 77, 126.75 77 M126.75 77 C85.01 77, 43.28 77, 19.25 77 M126.75 77 C92.14 77, 57.52 77, 19.25 77 M19.25 77 C6.42 77, 0 70.58, 0 57.75 M19.25 77 C6.42 77, 0 70.58, 0 57.75 M0 57.75 C0 44.2, 0 30.65, 0 19.25 M0 57.75 C0 43.32, 0 28.9, 0 19.25 M0 19.25 C0 6.42, 6.42 0, 19.25 0 M0 19.25 C0 6.42, 6.42 0, 19.25 0" stroke="#1e1e1e" stroke-width="1" fill="none"></path></g><g transform="translate(258.6787109375 238.91015625) rotate(0 66.1376953125 11.5)"><text x="66.1376953125" y="0" font-family="Helvetica, Segoe UI Emoji" font-size="20px" fill="#1e1e1e" text-anchor="middle" style="white-space: pre;" direction="ltr" dominant-baseline="text-before-edge">Search service</text></g><g stroke-linecap="round"><g transform="translate(84.0703125 201.05078125) rotate(0 52.80859375 -39.515625)"><path d="M0 0 C17.6 -13.17, 88.01 -65.86, 105.62 -79.03 M0 0 C17.6 -13.17, 88.01 -65.86, 105.62 -79.03" stroke="#1e1e1e" stroke-width="2" fill="none"></path></g><g transform="translate(84.0703125 201.05078125) rotate(0 52.80859375 -39.515625)"><path d="M89.19 -53.93 C94.85 -62.58, 100.51 -71.22, 105.62 -79.03 M89.19 -53.93 C95.18 -63.08, 101.17 -72.23, 105.62 -79.03" stroke="#1e1e1e" stroke-width="2" fill="none"></path></g><g transform="translate(84.0703125 201.05078125) rotate(0 52.80859375 -39.515625)"><path d="M76.9 -70.36 C86.79 -73.35, 96.69 -76.33, 105.62 -79.03 M76.9 -70.36 C87.37 -73.52, 97.84 -76.68, 105.62 -79.03" stroke="#1e1e1e" stroke-width="2" fill="none"></path></g></g><mask></mask><g stroke-linecap="round"><g transform="translate(316.359375 197.94140625) rotate(0 -47.21875 -37.744140625)"><path d="M0 0 C-15.74 -12.58, -78.7 -62.91, -94.44 -75.49 M0 0 C-15.74 -12.58, -78.7 -62.91, -94.44 -75.49" stroke="#1e1e1e" stroke-width="2" fill="none"></path></g><g transform="translate(316.359375 197.94140625) rotate(0 -47.21875 -37.744140625)"><path d="M-66.01 -65.9 C-73.06 -68.28, -80.11 -70.65, -94.44 -75.49 M-66.01 -65.9 C-73.15 -68.31, -80.29 -70.72, -94.44 -75.49" stroke="#1e1e1e" stroke-width="2" fill="none"></path></g><g transform="translate(316.359375 197.94140625) rotate(0 -47.21875 -37.744140625)"><path d="M-78.82 -49.87 C-82.69 -56.22, -86.57 -62.57, -94.44 -75.49 M-78.82 -49.87 C-82.75 -56.31, -86.67 -62.74, -94.44 -75.49" stroke="#1e1e1e" stroke-width="2" fill="none"></path></g></g><mask></mask></svg>