<svg version="1.1" xmlns="http://www.w3.org/2000/svg" viewBox="0 0 646.984375 334.890625" width="646.984375" height="334.890625">
  <!-- svg-source:excalidraw -->
  
  <defs>
    <style class="style-fonts">
      @font-face {
        font-family: "Virgil";
        src: url("https://excalidraw.com/Virgil.woff2");
      }
      @font-face {
        font-family: "Cascadia";
        src: url("https://excalidraw.com/Cascadia.woff2");
      }
    </style>
    
  </defs>
  <rect x="0" y="0" width="646.984375" height="334.890625" fill="#ffffff"></rect><g stroke-linecap="round" transform="translate(10 10) rotate(0 100.611328125 48.7734375)"><path d="M5.84 6.4 C5.84 6.4, 5.84 6.4, 5.84 6.4 M5.84 6.4 C5.84 6.4, 5.84 6.4, 5.84 6.4 M0.33 18.83 C4.31 14.25, 8.3 9.66, 14.76 2.23 M0.33 18.83 C6.02 12.28, 11.71 5.73, 14.76 2.23 M0.72 24.48 C6.05 18.35, 11.38 12.21, 20.4 1.83 M0.72 24.48 C7.52 16.66, 14.31 8.84, 20.4 1.83 M0.46 30.87 C7.19 23.13, 13.92 15.38, 26.04 1.44 M0.46 30.87 C8.98 21.07, 17.51 11.26, 26.04 1.44 M0.2 37.27 C10.04 25.95, 19.88 14.63, 31.03 1.8 M0.2 37.27 C11.06 24.77, 21.93 12.27, 31.03 1.8 M0.59 42.91 C8.59 33.71, 16.59 24.51, 36.67 1.41 M0.59 42.91 C8 34.39, 15.41 25.87, 36.67 1.41 M0.33 49.31 C9.46 38.81, 18.59 28.3, 41.66 1.77 M0.33 49.31 C14.88 32.58, 29.42 15.85, 41.66 1.77 M0.72 54.96 C18.62 34.37, 36.52 13.78, 47.3 1.37 M0.72 54.96 C17.49 35.67, 34.26 16.38, 47.3 1.37 M0.46 61.35 C18.4 40.72, 36.34 20.08, 52.29 1.73 M0.46 61.35 C18.86 40.19, 37.26 19.02, 52.29 1.73 M0.2 67.75 C15.12 50.59, 30.03 33.44, 57.93 1.34 M0.2 67.75 C15.83 49.77, 31.46 31.8, 57.93 1.34 M0.6 73.39 C21.77 49.04, 42.94 24.69, 62.92 1.7 M0.6 73.39 C19.18 52.02, 37.76 30.64, 62.92 1.7 M0.99 79.04 C16.28 61.44, 31.58 43.85, 68.57 1.3 M0.99 79.04 C23.73 52.88, 46.46 26.73, 68.57 1.3 M2.04 83.93 C25.03 57.48, 48.02 31.03, 73.55 1.66 M2.04 83.93 C19.38 63.98, 36.73 44.03, 73.55 1.66 M3.75 88.06 C29.83 58.06, 55.9 28.06, 79.2 1.27 M3.75 88.06 C24.95 63.67, 46.16 39.27, 79.2 1.27 M6.11 91.44 C28.48 65.71, 50.84 39.98, 84.18 1.63 M6.11 91.44 C35.35 57.8, 64.59 24.16, 84.18 1.63 M9.13 94.06 C37.27 61.69, 65.41 29.32, 89.83 1.23 M9.13 94.06 C37.64 61.26, 66.15 28.47, 89.83 1.23 M12.15 96.69 C37.32 67.73, 62.49 38.77, 94.81 1.59 M12.15 96.69 C29.14 77.14, 46.13 57.6, 94.81 1.59 M16.48 97.8 C36.89 74.33, 57.29 50.85, 100.46 1.2 M16.48 97.8 C43.95 66.2, 71.41 34.61, 100.46 1.2 M20.81 98.92 C47.94 67.7, 75.08 36.49, 105.44 1.56 M20.81 98.92 C52.27 62.72, 83.74 26.53, 105.44 1.56 M25.8 99.28 C52.31 68.77, 78.83 38.27, 111.09 1.16 M25.8 99.28 C51.48 69.73, 77.17 40.18, 111.09 1.16 M31.44 98.88 C61.45 64.36, 91.47 29.83, 116.07 1.52 M31.44 98.88 C51.3 76.04, 71.16 53.19, 116.07 1.52 M36.43 99.24 C62.85 68.85, 89.27 38.45, 121.72 1.13 M36.43 99.24 C61.96 69.87, 87.5 40.49, 121.72 1.13 M42.07 98.85 C67.59 69.49, 93.11 40.14, 126.7 1.49 M42.07 98.85 C65.81 71.54, 89.54 44.24, 126.7 1.49 M47.06 99.21 C70.27 72.51, 93.48 45.81, 132.35 1.1 M47.06 99.21 C70.14 72.66, 93.22 46.1, 132.35 1.1 M52.7 98.81 C80.73 66.57, 108.76 34.33, 137.33 1.46 M52.7 98.81 C79.83 67.61, 106.96 36.4, 137.33 1.46 M57.69 99.17 C83.53 69.45, 109.37 39.72, 142.32 1.82 M57.69 99.17 C82.12 71.07, 106.55 42.97, 142.32 1.82 M63.33 98.78 C87.75 70.69, 112.17 42.6, 147.96 1.42 M63.33 98.78 C87.98 70.43, 112.62 42.07, 147.96 1.42 M68.32 99.14 C101.48 60.99, 134.64 22.84, 152.95 1.78 M68.32 99.14 C98.14 64.84, 127.95 30.54, 152.95 1.78 M73.96 98.74 C98.8 70.17, 123.65 41.59, 158.59 1.39 M73.96 98.74 C95.44 74.03, 116.93 49.32, 158.59 1.39 M78.95 99.1 C111.87 61.23, 144.8 23.35, 163.58 1.75 M78.95 99.1 C111.57 61.58, 144.19 24.05, 163.58 1.75 M84.59 98.71 C113.46 65.5, 142.32 32.3, 169.22 1.35 M84.59 98.71 C117.99 60.28, 151.4 21.86, 169.22 1.35 M89.58 99.07 C108.99 76.73, 128.41 54.4, 174.21 1.71 M89.58 99.07 C109.62 76.01, 129.67 52.95, 174.21 1.71 M95.22 98.67 C120.51 69.59, 145.79 40.5, 179.2 2.07 M95.22 98.67 C114.13 76.93, 133.03 55.18, 179.2 2.07 M100.21 99.03 C127.11 68.09, 154 37.15, 184.18 2.43 M100.21 99.03 C123.76 71.95, 147.3 44.86, 184.18 2.43 M105.85 98.64 C132.39 68.11, 158.92 37.59, 189.17 2.79 M105.85 98.64 C137.64 62.08, 169.42 25.51, 189.17 2.79 M110.84 99 C139.06 66.53, 167.29 34.06, 192.85 4.66 M110.84 99 C128.46 78.73, 146.08 58.45, 192.85 4.66 M115.83 99.36 C132.89 79.73, 149.95 60.1, 195.86 7.29 M115.83 99.36 C133.84 78.64, 151.85 57.92, 195.86 7.29 M121.47 98.97 C141.48 75.95, 161.49 52.93, 198.88 9.91 M121.47 98.97 C141.92 75.44, 162.37 51.92, 198.88 9.91 M126.46 99.33 C147.04 75.65, 167.63 51.97, 199.93 14.8 M126.46 99.33 C144.25 78.85, 162.05 58.38, 199.93 14.8 M132.1 98.93 C152.65 75.29, 173.21 51.64, 201.64 18.93 M132.1 98.93 C158.32 68.77, 184.54 38.61, 201.64 18.93 M137.09 99.29 C155.68 77.9, 174.28 56.5, 201.38 25.33 M137.09 99.29 C152.79 81.23, 168.49 63.16, 201.38 25.33 M142.73 98.9 C164.16 74.25, 185.59 49.6, 201.77 30.97 M142.73 98.9 C156.15 83.46, 169.58 68.01, 201.77 30.97 M147.72 99.26 C163.07 81.59, 178.43 63.93, 201.51 37.37 M147.72 99.26 C167.49 76.51, 187.26 53.77, 201.51 37.37 M153.36 98.86 C165.15 85.3, 176.95 71.73, 201.91 43.01 M153.36 98.86 C163.74 86.92, 174.13 74.97, 201.91 43.01 M158.35 99.22 C175.17 79.86, 192 60.51, 201.65 49.41 M158.35 99.22 C170.18 85.61, 182.02 71.99, 201.65 49.41 M163.99 98.83 C178.69 81.92, 193.38 65.01, 201.38 55.81 M163.99 98.83 C173.73 87.62, 183.48 76.41, 201.38 55.81 M168.98 99.19 C181.89 84.33, 194.81 69.47, 201.78 61.45 M168.98 99.19 C180.39 86.05, 191.81 72.92, 201.78 61.45 M174.62 98.79 C183.92 88.1, 193.21 77.4, 201.52 67.85 M174.62 98.79 C180.43 92.11, 186.25 85.42, 201.52 67.85 M178.95 99.91 C187.46 90.12, 195.97 80.32, 201.91 73.49 M178.95 99.91 C185.91 91.91, 192.86 83.9, 201.91 73.49 M187.87 95.74 C192.12 90.86, 196.36 85.97, 201.65 79.89 M187.87 95.74 C191.38 91.71, 194.88 87.67, 201.65 79.89" stroke="#d0bfff" stroke-width="0.5" fill="none"></path><path d="M24.39 0 M24.39 0 C64.7 0, 105 0, 176.84 0 M24.39 0 C81.46 0, 138.53 0, 176.84 0 M176.84 0 C193.09 0, 201.22 8.13, 201.22 24.39 M176.84 0 C193.09 0, 201.22 8.13, 201.22 24.39 M201.22 24.39 C201.22 37.61, 201.22 50.83, 201.22 73.16 M201.22 24.39 C201.22 42.46, 201.22 60.54, 201.22 73.16 M201.22 73.16 C201.22 89.42, 193.09 97.55, 176.84 97.55 M201.22 73.16 C201.22 89.42, 193.09 97.55, 176.84 97.55 M176.84 97.55 C131.37 97.55, 85.91 97.55, 24.39 97.55 M176.84 97.55 C137.26 97.55, 97.68 97.55, 24.39 97.55 M24.39 97.55 C8.13 97.55, 0 89.42, 0 73.16 M24.39 97.55 C8.13 97.55, 0 89.42, 0 73.16 M0 73.16 C0 56.03, 0 38.9, 0 24.39 M0 73.16 C0 57.96, 0 42.76, 0 24.39 M0 24.39 C0 8.13, 8.13 0, 24.39 0 M0 24.39 C0 8.13, 8.13 0, 24.39 0" stroke="#1e1e1e" stroke-width="1" fill="none"></path></g><g transform="translate(71.1484375 47.2734375) rotate(0 39.462890625 11.5)"><text x="39.462890625" y="0" font-family="Helvetica, Segoe UI Emoji" font-size="20px" fill="#1e1e1e" text-anchor="middle" style="white-space: pre;" direction="ltr" dominant-baseline="text-before-edge">Postgres</text></g><g stroke-linecap="round" transform="translate(35.55859375 247.890625) rotate(0 73 38.5)"><path d="M5.12 4.45 C5.12 4.45, 5.12 4.45, 5.12 4.45 M5.12 4.45 C5.12 4.45, 5.12 4.45, 5.12 4.45 M0.93 15.38 C3.95 11.91, 6.97 8.43, 12.08 2.55 M0.93 15.38 C4.78 10.95, 8.63 6.52, 12.08 2.55 M0.66 21.78 C5.67 16.02, 10.68 10.26, 19.69 -0.11 M0.66 21.78 C7 14.49, 13.34 7.2, 19.69 -0.11 M1.06 27.42 C8.6 18.75, 16.13 10.08, 24.68 0.25 M1.06 27.42 C9.38 17.85, 17.71 8.27, 24.68 0.25 M0.8 33.82 C7.34 26.29, 13.89 18.76, 30.32 -0.14 M0.8 33.82 C6.86 26.84, 12.92 19.87, 30.32 -0.14 M1.19 39.46 C8.73 30.79, 16.27 22.12, 35.31 0.22 M1.19 39.46 C13.2 25.65, 25.2 11.84, 35.31 0.22 M0.93 45.86 C16.31 28.17, 31.69 10.48, 40.95 -0.18 M0.93 45.86 C15.34 29.29, 29.74 12.72, 40.95 -0.18 M0.67 52.26 C16.34 34.23, 32.01 16.21, 45.94 0.18 M0.67 52.26 C16.74 33.77, 32.81 15.28, 45.94 0.18 M1.06 57.9 C13.94 43.08, 26.82 28.27, 50.92 0.54 M1.06 57.9 C14.56 42.38, 28.06 26.85, 50.92 0.54 M1.46 63.54 C20.18 42.01, 38.9 20.47, 56.57 0.15 M1.46 63.54 C17.89 44.64, 34.32 25.74, 56.57 0.15 M3.17 67.68 C16.38 52.48, 29.59 37.27, 61.55 0.51 M3.17 67.68 C22.81 45.08, 42.45 22.48, 61.55 0.51 M4.87 71.81 C24.91 48.76, 44.95 25.71, 67.2 0.11 M4.87 71.81 C19.99 54.42, 35.1 37.04, 67.2 0.11 M7.89 74.44 C30.11 48.87, 52.34 23.31, 72.18 0.47 M7.89 74.44 C25.96 53.65, 44.03 32.86, 72.18 0.47 M12.22 75.55 C31.02 53.93, 49.81 32.31, 77.83 0.08 M12.22 75.55 C36.79 47.28, 61.37 19.02, 77.83 0.08 M15.9 77.42 C39.23 50.57, 62.57 23.73, 82.81 0.44 M15.9 77.42 C39.54 50.22, 63.18 23.02, 82.81 0.44 M20.88 77.78 C41.46 54.11, 62.04 30.44, 88.46 0.04 M20.88 77.78 C34.77 61.8, 48.66 45.83, 88.46 0.04 M25.87 78.14 C42.29 59.25, 58.71 40.36, 93.44 0.4 M25.87 78.14 C47.97 52.71, 70.07 27.29, 93.44 0.4 M30.86 78.5 C52.73 53.34, 74.61 28.17, 99.09 0.01 M30.86 78.5 C56.22 49.32, 81.59 20.14, 99.09 0.01 M36.5 78.11 C57.51 53.94, 78.52 29.77, 104.08 0.37 M36.5 78.11 C56.85 54.69, 77.2 31.28, 104.08 0.37 M41.49 78.47 C65.68 50.63, 89.88 22.8, 109.72 -0.02 M41.49 78.47 C57.5 60.05, 73.51 41.63, 109.72 -0.02 M47.13 78.07 C68.06 53.99, 89 29.91, 114.71 0.34 M47.13 78.07 C67.36 54.8, 87.6 31.52, 114.71 0.34 M52.12 78.43 C72.69 54.77, 93.26 31.1, 120.35 -0.06 M52.12 78.43 C71.25 56.42, 90.39 34.4, 120.35 -0.06 M57.76 78.04 C76.15 56.88, 94.54 35.73, 125.34 0.3 M57.76 78.04 C76.05 57, 94.34 35.96, 125.34 0.3 M62.75 78.4 C84.69 53.15, 106.64 27.91, 129.01 2.17 M62.75 78.4 C83.99 53.96, 105.23 29.53, 129.01 2.17 M68.39 78 C88.42 54.96, 108.46 31.91, 134 2.53 M68.39 78 C87.33 56.22, 106.27 34.43, 134 2.53 M73.38 78.36 C92.31 56.59, 111.24 34.81, 138.98 2.89 M73.38 78.36 C92.48 56.38, 111.59 34.4, 138.98 2.89 M79.02 77.97 C103.7 49.58, 128.38 21.19, 142 5.52 M79.02 77.97 C101.21 52.44, 123.4 26.91, 142 5.52 M84.01 78.33 C101.73 57.95, 119.44 37.57, 144.37 8.89 M84.01 78.33 C99.33 60.7, 114.65 43.08, 144.37 8.89 M89.65 77.93 C111.6 52.68, 133.55 27.43, 146.07 13.03 M89.65 77.93 C111.4 52.92, 133.15 27.9, 146.07 13.03 M94.64 78.29 C112.76 57.44, 130.89 36.59, 147.78 17.16 M94.64 78.29 C115.61 54.17, 136.59 30.04, 147.78 17.16 M100.28 77.9 C111.27 65.26, 122.26 52.62, 148.17 22.8 M100.28 77.9 C111.63 64.85, 122.97 51.8, 148.17 22.8 M105.27 78.26 C118.11 63.49, 130.95 48.72, 147.91 29.2 M105.27 78.26 C114.87 67.21, 124.47 56.17, 147.91 29.2 M110.91 77.86 C122.89 64.08, 134.87 50.31, 148.31 34.85 M110.91 77.86 C121.4 65.8, 131.88 53.74, 148.31 34.85 M115.9 78.22 C126.14 66.45, 136.38 54.67, 148.05 41.24 M115.9 78.22 C128.16 64.12, 140.43 50.01, 148.05 41.24 M121.54 77.83 C130.8 67.18, 140.06 56.53, 148.44 46.89 M121.54 77.83 C127.32 71.18, 133.1 64.53, 148.44 46.89 M127.18 77.43 C131.66 72.29, 136.14 67.14, 148.18 53.28 M127.18 77.43 C131.91 72, 136.63 66.56, 148.18 53.28 M133.48 76.29 C137.21 71.99, 140.95 67.7, 147.92 59.68 M133.48 76.29 C137.3 71.9, 141.11 67.51, 147.92 59.68" stroke="#69db7c" stroke-width="0.5" fill="none"></path><path d="M19.25 0 M19.25 0 C49.37 0, 79.48 0, 126.75 0 M19.25 0 C45.29 0, 71.33 0, 126.75 0 M126.75 0 C139.58 0, 146 6.42, 146 19.25 M126.75 0 C139.58 0, 146 6.42, 146 19.25 M146 19.25 C146 27.89, 146 36.54, 146 57.75 M146 19.25 C146 30.28, 146 41.3, 146 57.75 M146 57.75 C146 70.58, 139.58 77, 126.75 77 M146 57.75 C146 70.58, 139.58 77, 126.75 77 M126.75 77 C96.33 77, 65.92 77, 19.25 77 M126.75 77 C96.34 77, 65.93 77, 19.25 77 M19.25 77 C6.42 77, 0 70.58, 0 57.75 M19.25 77 C6.42 77, 0 70.58, 0 57.75 M0 57.75 C0 45.06, 0 32.37, 0 19.25 M0 57.75 C0 44.92, 0 32.09, 0 19.25 M0 19.25 C0 6.42, 6.42 0, 19.25 0 M0 19.25 C0 6.42, 6.42 0, 19.25 0" stroke="#1e1e1e" stroke-width="1" fill="none"></path></g><g transform="translate(67.4208984375 274.890625) rotate(0 41.1376953125 11.5)"><text x="41.1376953125" y="0" font-family="Helvetica, Segoe UI Emoji" font-size="20px" fill="#1e1e1e" text-anchor="middle" style="white-space: pre;" direction="ltr" dominant-baseline="text-before-edge">Main app</text></g><g stroke-linecap="round" transform="translate(463.35546875 247.7109375) rotate(0 73 38.5)"><path d="M5.12 4.45 C5.12 4.45, 5.12 4.45, 5.12 4.45 M5.12 4.45 C5.12 4.45, 5.12 4.45, 5.12 4.45 M0.93 15.38 C3.82 12.05, 6.71 8.72, 12.08 2.55 M0.93 15.38 C4.61 11.15, 8.29 6.91, 12.08 2.55 M0.66 21.78 C5.63 16.06, 10.6 10.35, 19.69 -0.11 M0.66 21.78 C6.56 15, 12.45 8.22, 19.69 -0.11 M1.06 27.42 C8.36 19.02, 15.67 10.62, 24.68 0.25 M1.06 27.42 C8.23 19.18, 15.4 10.93, 24.68 0.25 M0.8 33.82 C10.11 23.1, 19.43 12.38, 30.32 -0.14 M0.8 33.82 C9.72 23.55, 18.65 13.28, 30.32 -0.14 M1.19 39.46 C13.11 25.75, 25.03 12.04, 35.31 0.22 M1.19 39.46 C8.5 31.06, 15.81 22.65, 35.31 0.22 M0.93 45.86 C12.45 32.6, 23.98 19.35, 40.95 -0.18 M0.93 45.86 C9.5 36, 18.07 26.14, 40.95 -0.18 M0.67 52.26 C12.72 38.4, 24.77 24.53, 45.94 0.18 M0.67 52.26 C14.01 36.92, 27.34 21.57, 45.94 0.18 M1.06 57.9 C17.37 39.14, 33.68 20.39, 50.92 0.54 M1.06 57.9 C11.79 45.57, 22.51 33.23, 50.92 0.54 M1.46 63.54 C16.39 46.36, 31.33 29.18, 56.57 0.15 M1.46 63.54 C15.35 47.56, 29.25 31.57, 56.57 0.15 M3.17 67.68 C21.07 47.08, 38.98 26.48, 61.55 0.51 M3.17 67.68 C23.59 44.18, 44.02 20.68, 61.55 0.51 M4.87 71.81 C23.58 50.29, 42.29 28.76, 67.2 0.11 M4.87 71.81 C21.65 52.51, 38.43 33.21, 67.2 0.11 M7.89 74.44 C22.4 57.74, 36.91 41.05, 72.18 0.47 M7.89 74.44 C29.66 49.4, 51.42 24.36, 72.18 0.47 M12.22 75.55 C26.33 59.32, 40.44 43.09, 77.83 0.08 M12.22 75.55 C25.56 60.21, 38.89 44.87, 77.83 0.08 M15.9 77.42 C29.81 61.41, 43.73 45.4, 82.81 0.44 M15.9 77.42 C41.06 48.47, 66.22 19.53, 82.81 0.44 M20.88 77.78 C34.53 62.08, 48.17 46.39, 88.46 0.04 M20.88 77.78 C47.01 47.72, 73.14 17.67, 88.46 0.04 M25.87 78.14 C46.3 54.64, 66.72 31.15, 93.44 0.4 M25.87 78.14 C48.32 52.32, 70.77 26.49, 93.44 0.4 M30.86 78.5 C56.25 49.29, 81.63 20.09, 99.09 0.01 M30.86 78.5 C46.34 60.69, 61.82 42.88, 99.09 0.01 M36.5 78.11 C55.58 56.15, 74.67 34.2, 104.08 0.37 M36.5 78.11 C60.29 50.74, 84.08 23.37, 104.08 0.37 M41.49 78.47 C66.18 50.06, 90.88 21.65, 109.72 -0.02 M41.49 78.47 C55.57 62.27, 69.64 46.08, 109.72 -0.02 M47.13 78.07 C63.84 58.85, 80.55 39.63, 114.71 0.34 M47.13 78.07 C64.39 58.21, 81.66 38.35, 114.71 0.34 M52.12 78.43 C74.82 52.31, 97.53 26.19, 120.35 -0.06 M52.12 78.43 C71.39 56.26, 90.66 34.1, 120.35 -0.06 M57.76 78.04 C72.67 60.88, 87.58 43.73, 125.34 0.3 M57.76 78.04 C80.56 51.81, 103.35 25.59, 125.34 0.3 M62.75 78.4 C87.33 50.12, 111.9 21.85, 129.01 2.17 M62.75 78.4 C81.8 56.47, 100.86 34.55, 129.01 2.17 M68.39 78 C91.45 51.48, 114.5 24.96, 134 2.53 M68.39 78 C92.51 50.25, 116.63 22.51, 134 2.53 M73.38 78.36 C92.25 56.65, 111.13 34.93, 138.98 2.89 M73.38 78.36 C94.98 53.51, 116.58 28.66, 138.98 2.89 M79.02 77.97 C98.75 55.27, 118.49 32.57, 142 5.52 M79.02 77.97 C103.66 49.62, 128.31 21.27, 142 5.52 M84.01 78.33 C97.26 63.09, 110.5 47.85, 144.37 8.89 M84.01 78.33 C107.54 51.26, 131.07 24.19, 144.37 8.89 M89.65 77.93 C106.87 58.12, 124.1 38.31, 146.07 13.03 M89.65 77.93 C108.17 56.63, 126.68 35.33, 146.07 13.03 M94.64 78.29 C106.73 64.38, 118.82 50.47, 147.78 17.16 M94.64 78.29 C112 58.32, 129.36 38.35, 147.78 17.16 M100.28 77.9 C112.3 64.07, 124.33 50.24, 148.17 22.8 M100.28 77.9 C118.16 57.34, 136.03 36.78, 148.17 22.8 M105.27 78.26 C117.99 63.63, 130.7 49, 147.91 29.2 M105.27 78.26 C116.88 64.9, 128.5 51.53, 147.91 29.2 M110.91 77.86 C125.85 60.68, 140.79 43.49, 148.31 34.85 M110.91 77.86 C125.73 60.81, 140.56 43.76, 148.31 34.85 M115.9 78.22 C126.92 65.54, 137.94 52.86, 148.05 41.24 M115.9 78.22 C123.43 69.56, 130.96 60.9, 148.05 41.24 M121.54 77.83 C130.27 67.79, 138.99 57.75, 148.44 46.89 M121.54 77.83 C130.75 67.23, 139.97 56.63, 148.44 46.89 M127.18 77.43 C135.54 67.83, 143.89 58.22, 148.18 53.28 M127.18 77.43 C133.37 70.32, 139.56 63.2, 148.18 53.28 M133.48 76.29 C138.17 70.89, 142.86 65.5, 147.92 59.68 M133.48 76.29 C136.83 72.44, 140.17 68.59, 147.92 59.68" stroke="#69db7c" stroke-width="0.5" fill="none"></path><path d="M19.25 0 M19.25 0 C43.37 0, 67.49 0, 126.75 0 M19.25 0 C41.95 0, 64.65 0, 126.75 0 M126.75 0 C139.58 0, 146 6.42, 146 19.25 M126.75 0 C139.58 0, 146 6.42, 146 19.25 M146 19.25 C146 34.39, 146 49.53, 146 57.75 M146 19.25 C146 27.56, 146 35.88, 146 57.75 M146 57.75 C146 70.58, 139.58 77, 126.75 77 M146 57.75 C146 70.58, 139.58 77, 126.75 77 M126.75 77 C93.75 77, 60.75 77, 19.25 77 M126.75 77 C90.48 77, 54.22 77, 19.25 77 M19.25 77 C6.42 77, 0 70.58, 0 57.75 M19.25 77 C6.42 77, 0 70.58, 0 57.75 M0 57.75 C0 49.51, 0 41.28, 0 19.25 M0 57.75 C0 42.79, 0 27.83, 0 19.25 M0 19.25 C0 6.42, 6.42 0, 19.25 0 M0 19.25 C0 6.42, 6.42 0, 19.25 0" stroke="#1e1e1e" stroke-width="1" fill="none"></path></g><g transform="translate(470.2177734375 274.7109375) rotate(0 66.1376953125 11.5)"><text x="66.1376953125" y="0" font-family="Helvetica, Segoe UI Emoji" font-size="20px" fill="#1e1e1e" text-anchor="middle" style="white-space: pre;" direction="ltr" dominant-baseline="text-before-edge">Search service</text></g><g stroke-linecap="round" transform="translate(435.76171875 13.796875) rotate(0 100.611328125 48.7734375)"><path d="M5.84 6.4 C5.84 6.4, 5.84 6.4, 5.84 6.4 M5.84 6.4 C5.84 6.4, 5.84 6.4, 5.84 6.4 M0.33 18.83 C5.18 13.25, 10.04 7.66, 14.76 2.23 M0.33 18.83 C4.67 13.84, 9.01 8.85, 14.76 2.23 M0.72 24.48 C7.43 16.75, 14.15 9.03, 20.4 1.83 M0.72 24.48 C5.83 18.6, 10.94 12.72, 20.4 1.83 M0.46 30.87 C8.9 21.16, 17.35 11.44, 26.04 1.44 M0.46 30.87 C7.14 23.19, 13.82 15.5, 26.04 1.44 M0.2 37.27 C9.74 26.29, 19.29 15.3, 31.03 1.8 M0.2 37.27 C9.73 26.3, 19.27 15.33, 31.03 1.8 M0.59 42.91 C11.54 30.32, 22.49 17.72, 36.67 1.41 M0.59 42.91 C11.98 29.82, 23.37 16.72, 36.67 1.41 M0.33 49.31 C12.83 34.94, 25.32 20.56, 41.66 1.77 M0.33 49.31 C14.77 32.7, 29.21 16.09, 41.66 1.77 M0.72 54.96 C10.7 43.48, 20.68 32, 47.3 1.37 M0.72 54.96 C14.14 39.53, 27.55 24.1, 47.3 1.37 M0.46 61.35 C11.56 48.58, 22.66 35.81, 52.29 1.73 M0.46 61.35 C14.26 45.48, 28.06 29.61, 52.29 1.73 M0.2 67.75 C17.21 48.18, 34.22 28.62, 57.93 1.34 M0.2 67.75 C19.08 46.03, 37.96 24.31, 57.93 1.34 M0.6 73.39 C14 57.98, 27.4 42.56, 62.92 1.7 M0.6 73.39 C17.49 53.96, 34.38 34.53, 62.92 1.7 M0.99 79.04 C18.03 59.44, 35.07 39.84, 68.57 1.3 M0.99 79.04 C21.71 55.2, 42.44 31.36, 68.57 1.3 M2.04 83.93 C27.06 55.15, 52.08 26.37, 73.55 1.66 M2.04 83.93 C23.51 59.23, 44.98 34.53, 73.55 1.66 M3.75 88.06 C24.06 64.69, 44.37 41.33, 79.2 1.27 M3.75 88.06 C20.78 68.47, 37.81 48.88, 79.2 1.27 M6.11 91.44 C32.54 61.03, 58.97 30.63, 84.18 1.63 M6.11 91.44 C22.9 72.12, 39.69 52.81, 84.18 1.63 M9.13 94.06 C25.53 75.2, 41.93 56.33, 89.83 1.23 M9.13 94.06 C25.91 74.76, 42.69 55.45, 89.83 1.23 M12.15 96.69 C43.23 60.93, 74.31 25.17, 94.81 1.59 M12.15 96.69 C28.84 77.49, 45.53 58.29, 94.81 1.59 M16.48 97.8 C48.95 60.45, 81.42 23.1, 100.46 1.2 M16.48 97.8 C41.86 68.6, 67.24 39.41, 100.46 1.2 M20.81 98.92 C48.93 66.57, 77.04 34.23, 105.44 1.56 M20.81 98.92 C52.3 62.69, 83.79 26.46, 105.44 1.56 M25.8 99.28 C45.15 77.02, 64.5 54.76, 111.09 1.16 M25.8 99.28 C49.88 71.57, 73.97 43.86, 111.09 1.16 M31.44 98.88 C61.24 64.61, 91.03 30.33, 116.07 1.52 M31.44 98.88 C62.07 63.64, 92.7 28.41, 116.07 1.52 M36.43 99.24 C54.02 79, 71.62 58.76, 121.72 1.13 M36.43 99.24 C57.52 74.98, 78.61 50.72, 121.72 1.13 M42.07 98.85 C63.69 73.98, 85.31 49.11, 126.7 1.49 M42.07 98.85 C70.23 66.45, 98.4 34.05, 126.7 1.49 M47.06 99.21 C71.15 71.5, 95.23 43.79, 132.35 1.1 M47.06 99.21 C65.88 77.56, 84.7 55.91, 132.35 1.1 M52.7 98.81 C81.25 65.97, 109.8 33.13, 137.33 1.46 M52.7 98.81 C84.09 62.7, 115.48 26.59, 137.33 1.46 M57.69 99.17 C82.03 71.17, 106.37 43.18, 142.32 1.82 M57.69 99.17 C87.43 64.96, 117.17 30.75, 142.32 1.82 M63.33 98.78 C94.45 62.98, 125.56 27.19, 147.96 1.42 M63.33 98.78 C87.68 70.77, 112.03 42.76, 147.96 1.42 M68.32 99.14 C96.18 67.08, 124.05 35.03, 152.95 1.78 M68.32 99.14 C94.84 68.63, 121.35 38.13, 152.95 1.78 M73.96 98.74 C107.08 60.65, 140.19 22.56, 158.59 1.39 M73.96 98.74 C92.54 77.38, 111.11 56.01, 158.59 1.39 M78.95 99.1 C111.94 61.15, 144.93 23.2, 163.58 1.75 M78.95 99.1 C104.78 69.38, 130.62 39.67, 163.58 1.75 M84.59 98.71 C112.36 66.76, 140.14 34.81, 169.22 1.35 M84.59 98.71 C103.85 76.56, 123.11 54.4, 169.22 1.35 M89.58 99.07 C117.23 67.26, 144.88 35.45, 174.21 1.71 M89.58 99.07 C110.82 74.63, 132.07 50.19, 174.21 1.71 M95.22 98.67 C126.56 62.62, 157.9 26.57, 179.2 2.07 M95.22 98.67 C120.27 69.86, 145.31 41.05, 179.2 2.07 M100.21 99.03 C123.08 72.72, 145.96 46.4, 184.18 2.43 M100.21 99.03 C133.75 60.44, 167.3 21.85, 184.18 2.43 M105.85 98.64 C138.88 60.65, 171.9 22.66, 189.17 2.79 M105.85 98.64 C134.42 65.78, 162.99 32.91, 189.17 2.79 M110.84 99 C130.05 76.9, 149.26 54.8, 192.85 4.66 M110.84 99 C137.44 68.4, 164.05 37.79, 192.85 4.66 M115.83 99.36 C143.24 67.82, 170.65 36.29, 195.86 7.29 M115.83 99.36 C147.67 62.73, 179.51 26.1, 195.86 7.29 M121.47 98.97 C144.28 72.72, 167.1 46.48, 198.88 9.91 M121.47 98.97 C146.6 70.05, 171.74 41.14, 198.88 9.91 M126.46 99.33 C143.47 79.75, 160.49 60.17, 199.93 14.8 M126.46 99.33 C142.94 80.36, 159.43 61.4, 199.93 14.8 M132.1 98.93 C146.78 82.04, 161.47 65.14, 201.64 18.93 M132.1 98.93 C147.68 81, 163.27 63.08, 201.64 18.93 M137.09 99.29 C160.14 72.77, 183.19 46.25, 201.38 25.33 M137.09 99.29 C156.94 76.45, 176.8 53.61, 201.38 25.33 M142.73 98.9 C155.49 84.22, 168.25 69.54, 201.77 30.97 M142.73 98.9 C164.66 73.66, 186.6 48.43, 201.77 30.97 M147.72 99.26 C163.5 81.11, 179.27 62.95, 201.51 37.37 M147.72 99.26 C161.84 83.01, 175.97 66.75, 201.51 37.37 M153.36 98.86 C163.89 86.75, 174.42 74.64, 201.91 43.01 M153.36 98.86 C165.04 85.42, 176.73 71.98, 201.91 43.01 M158.35 99.22 C170.5 85.24, 182.66 71.25, 201.65 49.41 M158.35 99.22 C167.96 88.17, 177.57 77.11, 201.65 49.41 M163.99 98.83 C178.8 81.79, 193.6 64.76, 201.38 55.81 M163.99 98.83 C172.61 88.91, 181.23 79, 201.38 55.81 M168.98 99.19 C176.88 90.1, 184.78 81.01, 201.78 61.45 M168.98 99.19 C177.12 89.82, 185.26 80.45, 201.78 61.45 M174.62 98.79 C180.29 92.27, 185.96 85.75, 201.52 67.85 M174.62 98.79 C181.74 90.6, 188.87 82.41, 201.52 67.85 M178.95 99.91 C187.41 90.18, 195.87 80.44, 201.91 73.49 M178.95 99.91 C186.48 91.25, 194 82.59, 201.91 73.49 M187.87 95.74 C193.3 89.5, 198.72 83.26, 201.65 79.89 M187.87 95.74 C193.28 89.52, 198.69 83.3, 201.65 79.89" stroke="#ffec99" stroke-width="0.5" fill="none"></path><path d="M24.39 0 M24.39 0 C75.23 0, 126.08 0, 176.84 0 M24.39 0 C81.08 0, 137.77 0, 176.84 0 M176.84 0 C193.09 0, 201.22 8.13, 201.22 24.39 M176.84 0 C193.09 0, 201.22 8.13, 201.22 24.39 M201.22 24.39 C201.22 39.47, 201.22 54.54, 201.22 73.16 M201.22 24.39 C201.22 39.22, 201.22 54.06, 201.22 73.16 M201.22 73.16 C201.22 89.42, 193.09 97.55, 176.84 97.55 M201.22 73.16 C201.22 89.42, 193.09 97.55, 176.84 97.55 M176.84 97.55 C134.15 97.55, 91.47 97.55, 24.39 97.55 M176.84 97.55 C125.89 97.55, 74.94 97.55, 24.39 97.55 M24.39 97.55 C8.13 97.55, 0 89.42, 0 73.16 M24.39 97.55 C8.13 97.55, 0 89.42, 0 73.16 M0 73.16 C0 60.74, 0 48.33, 0 24.39 M0 73.16 C0 59.55, 0 45.93, 0 24.39 M0 24.39 C0 8.13, 8.13 0, 24.39 0 M0 24.39 C0 8.13, 8.13 0, 24.39 0" stroke="#1e1e1e" stroke-width="1" fill="none"></path></g><g transform="translate(476.9052734375 51.0703125) rotate(0 59.4677734375 11.5)"><text x="59.4677734375" y="0" font-family="Helvetica, Segoe UI Emoji" font-size="20px" fill="#1e1e1e" text-anchor="middle" style="white-space: pre;" direction="ltr" dominant-baseline="text-before-edge">Elasticsearch</text></g><g stroke-linecap="round"><g transform="translate(105.34735783026451 239.83203125) rotate(0 1.2464959924226378 -59.00195312499997)"><path d="M0 0 C0.42 -19.67, 2.08 -98.34, 2.49 -118 M0 0 C0.42 -19.67, 2.08 -98.34, 2.49 -118" stroke="#1e1e1e" stroke-width="2" fill="none"></path></g><g transform="translate(105.34735783026451 239.83203125) rotate(0 1.2464959924226378 -59.00195312499997)"><path d="M12.16 -89.6 C10.22 -95.31, 8.28 -101.01, 2.49 -118 M12.16 -89.6 C10.02 -95.89, 7.88 -102.17, 2.49 -118" stroke="#1e1e1e" stroke-width="2" fill="none"></path></g><g transform="translate(105.34735783026451 239.83203125) rotate(0 1.2464959924226378 -59.00195312499997)"><path d="M-8.36 -90.04 C-6.18 -95.65, -4 -101.27, 2.49 -118 M-8.36 -90.04 C-5.96 -96.22, -3.56 -102.41, 2.49 -118" stroke="#1e1e1e" stroke-width="2" fill="none"></path></g></g><mask></mask><g stroke-linecap="round"><g transform="translate(537.5015677611138 234.84765625) rotate(0 -0.4619306123433944 -56.013671875)"><path d="M0 0 C-0.15 -18.67, -0.77 -93.36, -0.92 -112.03 M0 0 C-0.15 -18.67, -0.77 -93.36, -0.92 -112.03" stroke="#1e1e1e" stroke-width="2" fill="none"></path></g><g transform="translate(537.5015677611138 234.84765625) rotate(0 -0.4619306123433944 -56.013671875)"><path d="M9.57 -83.92 C6.43 -92.32, 3.3 -100.72, -0.92 -112.03 M9.57 -83.92 C5.79 -94.04, 2.01 -104.16, -0.92 -112.03" stroke="#1e1e1e" stroke-width="2" fill="none"></path></g><g transform="translate(537.5015677611138 234.84765625) rotate(0 -0.4619306123433944 -56.013671875)"><path d="M-10.95 -83.75 C-7.95 -92.2, -4.96 -100.66, -0.92 -112.03 M-10.95 -83.75 C-7.34 -93.93, -3.73 -104.11, -0.92 -112.03" stroke="#1e1e1e" stroke-width="2" fill="none"></path></g></g><mask></mask><g mask="url(#mask-QTajKyP7xHCxxww6yeTLy)" stroke-linecap="round"><g transform="translate(224.39453125 60.315269611608755) rotate(0 95.48828125 0.2584244247838683)"><path d="M0 0 C31.83 0.09, 159.15 0.43, 190.98 0.52" stroke="#1e1e1e" stroke-width="1.5" fill="none" stroke-dasharray="8 9"></path></g><g transform="translate(224.39453125 60.315269611608755) rotate(0 95.48828125 0.2584244247838683)"><path d="M162.76 10.7 C168.46 8.64, 174.15 6.59, 190.98 0.52" stroke="#1e1e1e" stroke-width="1.5" fill="none"></path></g><g transform="translate(224.39453125 60.315269611608755) rotate(0 95.48828125 0.2584244247838683)"><path d="M162.81 -9.82 C168.5 -7.73, 174.19 -5.65, 190.98 0.52" stroke="#1e1e1e" stroke-width="1.5" fill="none"></path></g></g><mask id="mask-QTajKyP7xHCxxww6yeTLy"><rect x="0" y="0" fill="#fff" width="515.37109375" height="160.8321184611765"></rect><rect x="270.3928451538086" y="48.073694036392624" fill="#000" width="98.97993469238281" height="25" opacity="1"></rect></mask><g transform="translate(270.3928451538086 48.073694036392624) rotate(0 49.489967346191406 12.5)"><text x="49.489967346191406" y="0" font-family="Virgil, Segoe UI Emoji" font-size="20px" fill="#1e1e1e" text-anchor="middle" style="white-space: pre;" direction="ltr" dominant-baseline="text-before-edge">data sync</text></g><g mask="url(#mask-K1LR5tLSNHvwT7cy3eN9j)" stroke-linecap="round"><g transform="translate(193.109375 273.62111501908225) rotate(0 112.2421875 -83.3082619753018)"><path d="M0 0 C37.41 -27.77, 187.07 -138.85, 224.48 -166.62" stroke="#1e1e1e" stroke-width="1.5" fill="none" stroke-dasharray="8 9"></path></g><g transform="translate(193.109375 273.62111501908225) rotate(0 112.2421875 -83.3082619753018)"><path d="M207.96 -141.58 C212.47 -148.41, 216.97 -155.23, 224.48 -166.62" stroke="#1e1e1e" stroke-width="1.5" fill="none"></path></g><g transform="translate(193.109375 273.62111501908225) rotate(0 112.2421875 -83.3082619753018)"><path d="M195.73 -158.05 C203.57 -160.39, 211.42 -162.72, 224.48 -166.62" stroke="#1e1e1e" stroke-width="1.5" fill="none"></path></g></g><mask id="mask-K1LR5tLSNHvwT7cy3eN9j"><rect x="0" y="0" fill="#fff" width="517.59375" height="540.2376389696858"></rect><rect x="255.8615951538086" y="177.81285304378048" fill="#000" width="98.97993469238281" height="25" opacity="1"></rect></mask><g transform="translate(255.8615951538086 177.81285304378048) rotate(0 49.489967346191406 12.499999999999972)"><text x="49.489967346191406" y="0" font-family="Virgil, Segoe UI Emoji" font-size="20px" fill="#1e1e1e" text-anchor="middle" style="white-space: pre;" direction="ltr" dominant-baseline="text-before-edge">data sync</text></g></svg>